<svg width="189" height="42" viewBox="0 0 189 42" fill="none" xmlns="http://www.w3.org/2000/svg">
<path d="M31.3876 7.786C31.3666 7.788 31.3456 7.4935 31.2441 6.9735C31.1411 6.4555 30.9716 5.7025 30.5946 4.8355C30.2251 3.9715 29.6466 2.98001 28.7456 2.12351C27.8596 1.26551 26.5566 0.626004 25.1241 0.621004C23.6906 0.615504 22.3831 1.2465 21.4921 2.0995C20.5866 2.9515 20.0036 3.9405 19.6311 4.8035C19.2506 5.6685 19.0786 6.421 18.9736 6.939C18.8706 7.459 18.8486 7.75301 18.8276 7.75101C18.8206 7.75051 18.8221 7.677 18.8311 7.5365C18.8381 7.396 18.8561 7.1895 18.8971 6.926C18.9791 6.4 19.1316 5.63451 19.5011 4.74851C19.8626 3.86601 20.4421 2.8495 21.3661 1.9655C22.2751 1.08 23.6336 0.414995 25.1241 0.421495C26.6146 0.425495 27.9676 1.10001 28.8716 1.99001C29.7911 2.87851 30.3656 3.89701 30.7241 4.78101C31.0901 5.66801 31.2401 6.4345 31.3201 6.9605C31.3601 7.2245 31.3776 7.431 31.3841 7.5715C31.3931 7.712 31.3941 7.7855 31.3876 7.786Z" fill="#455A64"/>
<path d="M33.5561 7.786C33.5351 7.788 33.5141 7.4935 33.4126 6.9735C33.3096 6.4555 33.1401 5.7025 32.7631 4.8355C32.3936 3.9715 31.8151 2.98001 30.9141 2.12351C30.0281 1.26551 28.7251 0.626004 27.2926 0.621004C25.8591 0.615504 24.5516 1.2465 23.6606 2.0995C22.7551 2.9515 22.1721 3.9405 21.7996 4.8035C21.4191 5.6685 21.2471 6.421 21.1421 6.939C21.0391 7.459 21.0171 7.75301 20.9961 7.75101C20.9891 7.75051 20.9906 7.677 20.9996 7.5365C21.0066 7.396 21.0246 7.1895 21.0656 6.926C21.1476 6.4 21.3001 5.63451 21.6696 4.74851C22.0316 3.86601 22.6106 2.8495 23.5346 1.9655C24.4436 1.08 25.8021 0.414995 27.2931 0.421495C28.7836 0.425495 30.1366 1.10001 31.0406 1.99001C31.9601 2.87851 32.5346 3.89701 32.8931 4.78101C33.2591 5.66801 33.4091 6.4345 33.4891 6.9605C33.5291 7.2245 33.5466 7.431 33.5531 7.5715C33.5616 7.712 33.5631 7.7855 33.5561 7.786Z" fill="#455A64"/>
<path d="M12.6221 7.01152L37.1136 6.82501L37.6481 40.211H10.1641L12.6221 7.01152Z" fill="#EBEBEB"/>
<path d="M37.1133 6.82501H40.1883L42.8353 40.211H37.6478L37.1133 6.82501Z" fill="#9FAAC9"/>
<path d="M31.9232 19.969H15.8887V22.6555H31.9232V19.969Z" fill="white"/>
<path d="M20.2203 15.6265C20.1653 15.641 20.1583 14.387 19.4923 12.583C19.1573 11.692 18.6343 10.67 17.8213 9.78799C17.0218 8.90449 15.8483 8.247 14.5583 8.242C13.2673 8.236 12.0898 8.88499 11.2858 9.76299C10.4688 10.6405 9.94127 11.6595 9.60377 12.549C8.93177 14.35 8.92128 15.604 8.86628 15.589C8.85878 15.5885 8.85928 15.512 8.86628 15.367C8.87128 15.222 8.88677 15.008 8.92277 14.735C8.99477 14.191 9.13128 13.398 9.46428 12.4805C9.79028 11.5665 10.3138 10.513 11.1508 9.59649C11.9743 8.67849 13.2068 7.9875 14.5598 7.9945C15.9123 7.9985 17.1398 8.69899 17.9588 9.62199C18.7913 10.5435 19.3108 11.5985 19.6338 12.514C19.9633 13.4325 20.0978 14.226 20.1678 14.7705C20.2028 15.044 20.2178 15.2575 20.2223 15.403C20.2278 15.5495 20.2273 15.6255 20.2203 15.6265Z" fill="#263238"/>
<path d="M22.1805 15.6265C22.1255 15.641 22.1185 14.387 21.4525 12.583C21.1175 11.692 20.5945 10.67 19.7815 9.78799C18.982 8.90449 17.8085 8.247 16.518 8.242C15.227 8.236 14.0495 8.88499 13.2455 9.76299C12.4285 10.6405 11.901 11.6595 11.5635 12.549C10.8915 14.35 10.881 15.604 10.826 15.589C10.8185 15.5885 10.8185 15.512 10.8255 15.367C10.8305 15.222 10.846 15.008 10.882 14.735C10.954 14.191 11.0905 13.398 11.4235 12.4805C11.7495 11.5665 12.273 10.513 13.11 9.59649C13.9335 8.67849 15.166 7.9875 16.519 7.9945C17.8715 7.9985 19.099 8.69899 19.918 9.62199C20.7505 10.5435 21.27 11.5985 21.593 12.514C21.9225 13.4325 22.057 14.226 22.127 14.7705C22.162 15.044 22.177 15.2575 22.1815 15.403C22.188 15.5495 22.188 15.6255 22.1805 15.6265Z" fill="#263238"/>
<path d="M2.27473 14.306L24.4167 14.1525L24.8997 41.6265H0.0527344L2.27473 14.306Z" fill="#455A64"/>
<path d="M24.417 14.1525H27.1965L29.59 41.6265H24.9L24.417 14.1525Z" fill="#455A64"/>
<g opacity="0.3">
<path d="M24.417 14.1525H27.1965L29.59 41.6265H24.9L24.417 14.1525Z" fill="black"/>
</g>
<path d="M20.6405 23.4845H6.14453V26.2605H20.6405V23.4845Z" fill="white"/>
<path d="M181.917 22.9705C181.878 22.981 181.873 22.086 181.398 20.7985C181.159 20.1625 180.786 19.4335 180.206 18.804C179.635 18.1735 178.797 17.7045 177.876 17.7005C176.955 17.6965 176.115 18.1595 175.541 18.786C174.958 19.412 174.582 20.1395 174.341 20.7745C173.861 22.06 173.853 22.955 173.814 22.9445C173.808 22.944 173.809 22.8895 173.814 22.786C173.817 22.6825 173.829 22.53 173.854 22.335C173.906 21.9465 174.003 21.3805 174.24 20.726C174.473 20.0735 174.847 19.322 175.445 18.668C176.032 18.0125 176.912 17.5195 177.878 17.5245C178.843 17.5275 179.719 18.027 180.303 18.686C180.897 19.3435 181.268 20.0965 181.499 20.75C181.734 21.4055 181.83 21.972 181.88 22.3605C181.905 22.5555 181.915 22.708 181.919 22.8115C181.923 22.9155 181.923 22.97 181.917 22.9705Z" fill="#263238"/>
<path d="M183.317 22.9705C183.277 22.981 183.272 22.086 182.797 20.7985C182.558 20.1625 182.184 19.4335 181.604 18.804C181.034 18.1735 180.196 17.7045 179.275 17.7005C178.354 17.6965 177.514 18.1595 176.94 18.786C176.357 19.412 175.98 20.1395 175.739 20.7745C175.26 22.06 175.252 22.955 175.213 22.9445C175.207 22.944 175.208 22.8895 175.213 22.786C175.216 22.6825 175.227 22.53 175.253 22.335C175.305 21.9465 175.402 21.3805 175.64 20.726C175.872 20.0735 176.246 19.322 176.844 18.668C177.431 18.0125 178.311 17.5195 179.277 17.5245C180.242 17.5275 181.118 18.027 181.702 18.686C182.297 19.3435 182.667 20.0965 182.898 20.75C183.133 21.4055 183.229 21.972 183.279 22.3605C183.304 22.5555 183.314 22.708 183.318 22.8115C183.322 22.9155 183.322 22.97 183.317 22.9705Z" fill="#263238"/>
<path d="M169.11 22.0285L184.912 21.9185L185.257 41.5265H167.524L169.11 22.0285Z" fill="#455A64"/>
<path d="M184.912 21.9185H186.896L188.604 41.5265H185.257L184.912 21.9185Z" fill="#455A64"/>
<g opacity="0.3">
<path d="M184.912 21.9185H186.896L188.604 41.5265H185.257L184.912 21.9185Z" fill="black"/>
</g>
<path d="M182.218 28.579H171.873V30.5605H182.218V28.579Z" fill="white"/>
</svg>
