<svg width="81" height="152" viewBox="0 0 81 152" fill="none" xmlns="http://www.w3.org/2000/svg">
<path d="M57.1998 60.828L80.6033 82.7215L75.7018 88.038L54.8008 63.585L57.1998 60.828Z" fill="#9FAAC9"/>
<path d="M75.7013 88.038L59.8948 90.0045L47.4258 66.807L54.8003 63.585L75.7013 88.038Z" fill="#9FAAC9"/>
<path d="M75.7016 88.038C75.6671 88.043 75.5521 87.495 75.3916 86.5965C75.2311 85.698 75.0261 84.449 74.8116 83.053L74.7896 82.9115L74.9326 82.9035C75.0291 82.898 75.1321 82.8925 75.2361 82.8865C76.7161 82.805 78.0566 82.7455 79.0276 82.7155C79.9986 82.6855 80.6001 82.685 80.6021 82.721C80.6041 82.757 80.0061 82.8225 79.0376 82.8995C78.0691 82.9765 76.7301 83.065 75.2501 83.1465C75.1461 83.152 75.0426 83.158 74.9461 83.163L75.0676 83.0135C75.2781 84.4105 75.4536 85.664 75.5676 86.5695C75.6831 87.4755 75.7361 88.033 75.7016 88.038Z" fill="#263238"/>
<path d="M56.0347 62.1565C56.0882 62.108 60.3637 66.743 65.5837 72.507C70.8052 78.273 74.9937 82.985 74.9402 83.0335C74.8867 83.082 70.6122 78.448 65.3907 72.682C60.1707 66.9175 55.9817 62.2045 56.0347 62.1565Z" fill="#263238"/>
<g opacity="0.3">
<path d="M75.7013 88.038L59.8948 90.0045L47.4258 66.807L54.8003 63.585L75.7013 88.038Z" fill="black"/>
</g>
<path d="M74.7192 91.659L67.4777 97.831L54.7197 66.5025L55.3422 66.1195L74.7192 91.659Z" fill="#455A64"/>
<path d="M67.4781 97.831L55.9346 94.987L47.2036 68.1715L54.7201 66.5025L67.4781 97.831Z" fill="#455A64"/>
<g opacity="0.3">
<path d="M67.4781 97.831L55.9346 94.987L47.2036 68.1715L54.7201 66.5025L67.4781 97.831Z" fill="black"/>
</g>
<path d="M67.4781 97.831C67.4606 97.827 67.4821 97.6465 67.5366 97.323C67.5911 96.9995 67.6781 96.5335 67.7911 95.9585C68.0171 94.809 68.3466 93.225 68.7261 91.4785C68.7846 91.2105 68.8426 90.946 68.8976 90.6955L68.9241 90.574L69.0461 90.5955C70.6226 90.8745 72.0166 91.1335 73.0151 91.331C74.0136 91.5285 74.6166 91.6645 74.6106 91.697C74.6051 91.7295 73.9916 91.6535 72.9851 91.5015C71.9786 91.3495 70.5791 91.121 69.0016 90.85L69.1501 90.75C69.0961 91.001 69.0386 91.265 68.9806 91.5335C68.6011 93.28 68.2431 94.858 67.9711 95.9975C67.8351 96.5675 67.7206 97.0275 67.6361 97.344C67.5506 97.6615 67.4956 97.835 67.4781 97.831Z" fill="#263238"/>
<path d="M55.0136 66.3765C55.0761 66.3405 58.2626 71.762 62.1311 78.4845C66.0006 85.209 69.0856 90.6875 69.0231 90.7235C68.9606 90.7595 65.7746 85.339 61.9051 78.6145C58.0376 71.892 54.9516 66.4125 55.0136 66.3765Z" fill="#263238"/>
<path d="M52.2737 65.7945L62.3682 89.1825L54.0987 92.0515L51.6152 65.9355L52.2737 65.7945Z" fill="#FCBD01"/>
<path d="M54.0989 92.0515L46.4299 90.317L45.3784 66.76L51.6154 65.9355L54.0989 92.0515Z" fill="#FCBD01"/>
<g opacity="0.3">
<path d="M54.0989 92.0515L46.4299 90.317L45.3784 66.76L51.6154 65.9355L54.0989 92.0515Z" fill="black"/>
</g>
<path d="M54.0996 92.0515C54.0721 92.0285 54.4277 91.552 55.0247 90.801C55.6217 90.0495 56.4606 89.0235 57.3991 87.9005C57.5041 87.7755 57.6077 87.6515 57.7057 87.535L57.7631 87.4665L57.8471 87.4955C59.1271 87.9375 60.2631 88.3435 61.0761 88.6465C61.8891 88.95 62.3796 89.1505 62.3686 89.1825C62.3576 89.2145 61.8472 89.0725 61.0192 88.813C60.1912 88.5535 59.0452 88.177 57.7627 87.7405L57.9041 87.701C57.8066 87.818 57.7032 87.942 57.5987 88.0675C56.6602 89.1905 55.7991 90.198 55.1656 90.919C54.5326 91.64 54.1271 92.0745 54.0996 92.0515Z" fill="#263238"/>
<path d="M51.9519 65.8635C52.0214 65.845 53.3879 70.7 55.0039 76.7065C56.6204 82.715 57.8739 87.5995 57.8044 87.618C57.7349 87.6365 56.3689 82.7825 54.7524 76.774C53.1364 70.7675 51.8829 65.882 51.9519 65.8635Z" fill="#263238"/>
<path d="M57.1994 60.828L48.7334 64.717L49.5859 65.8635L54.8004 63.585L57.1994 60.828Z" fill="#263238"/>
<path d="M55.3427 66.1195L52.6602 66.689L52.7822 66.9325L54.7202 66.5025L55.3427 66.1195Z" fill="#263238"/>
<path d="M52.5146 32.7055C52.5146 32.7055 55.3551 36.3725 55.6616 38.695C55.9151 40.615 57.3021 51.02 58.0086 55.92C58.2971 57.9205 57.8121 59.991 56.5246 61.549C55.3006 63.03 53.4516 64.073 50.9486 62.3195C49.2291 61.1145 44.8291 56.193 44.8291 56.193L52.0651 33.5255" fill="#FCBD01"/>
<path d="M44.6784 1.31151C43.2784 0.878505 41.7043 1.04101 40.4223 1.75151C39.7088 0.834008 38.4819 0.345509 37.3329 0.521009C36.1839 0.696509 35.1589 1.53 34.7524 2.6185C33.5309 2.125 31.9858 2.6495 31.3168 3.7845C30.6478 4.91951 30.9378 6.52551 31.9613 7.35501C30.9623 7.76951 30.1749 8.6625 29.8884 9.7055C29.6014 10.7485 29.8218 11.9185 30.4678 12.7855C29.3978 13.304 29.2148 14.7525 29.3728 15.931C29.5308 17.1095 29.8704 18.372 29.3419 19.437C28.9339 20.2595 28.0919 20.7685 27.5164 21.484C26.9409 22.1995 26.7394 23.4315 27.5194 23.9165C26.1909 24.0955 25.1654 25.51 25.4084 26.828C25.6514 28.1465 27.1133 29.102 28.4183 28.796C27.9833 29.7235 28.1709 30.8665 28.7419 31.7165C29.3134 32.567 30.2204 33.148 31.1839 33.4965C33.9554 34.5005 37.3179 33.552 39.1564 31.248L47.9443 4.076C47.2853 2.767 46.0784 1.74451 44.6784 1.31151Z" fill="#263238"/>
<path d="M48.8575 8.84001L48.975 7.37402L40.26 5.16702C37.559 4.71602 34.456 7.26352 34.12 9.98102C33.7465 13.0005 33.41 16.7015 33.633 18.9845C34.0815 23.575 37.532 24.3635 37.532 24.3635L37.2795 28.8785L47.328 29.61L48.8575 8.84001Z" fill="#AE7461"/>
<path d="M35.1851 14.311C35.1556 14.6185 35.3916 14.8965 35.7121 14.933C36.0316 14.9695 36.3151 14.7505 36.3446 14.4435C36.3741 14.136 36.1381 13.8575 35.8186 13.821C35.4981 13.7845 35.2146 14.004 35.1851 14.311Z" fill="#263238"/>
<path d="M34.9648 11.9705C35.0323 12.051 35.4938 11.7505 36.1213 11.79C36.7483 11.8205 37.1898 12.171 37.2623 12.098C37.2978 12.066 37.2323 11.9245 37.0408 11.7665C36.8518 11.6095 36.5238 11.4475 36.1328 11.426C35.7418 11.4045 35.4043 11.5285 35.2068 11.6645C35.0048 11.8005 34.9313 11.934 34.9648 11.9705Z" fill="#263238"/>
<path d="M40.688 14.6515C40.6585 14.959 40.895 15.237 41.215 15.2735C41.5345 15.31 41.818 15.091 41.8475 14.784C41.877 14.4765 41.641 14.198 41.3215 14.1615C41.001 14.125 40.7175 14.3445 40.688 14.6515Z" fill="#263238"/>
<path d="M41.1269 12.4585C41.1949 12.5385 41.6569 12.2385 42.2834 12.278C42.9104 12.3085 43.3519 12.659 43.4249 12.586C43.4599 12.554 43.3954 12.4125 43.2029 12.2545C43.0144 12.097 42.6859 11.9355 42.2954 11.914C41.9044 11.8925 41.5669 12.017 41.3689 12.1525C41.1674 12.2885 41.0934 12.4225 41.1269 12.4585Z" fill="#263238"/>
<path d="M38.5693 16.9755C38.5743 16.94 38.1883 16.8495 37.5613 16.7305C37.4018 16.7045 37.2523 16.6635 37.2318 16.5525C37.2008 16.4345 37.2783 16.2655 37.3673 16.084C37.5413 15.705 37.7233 15.3085 37.9148 14.8925C38.6773 13.195 39.2398 11.795 39.1708 11.765C39.1023 11.735 38.4283 13.0865 37.6658 14.784C37.4818 15.203 37.3058 15.602 37.1383 15.984C37.0668 16.1625 36.9498 16.3625 37.0173 16.608C37.0533 16.73 37.1658 16.8245 37.2668 16.858C37.3678 16.8955 37.4578 16.9025 37.5363 16.912C38.1703 16.9845 38.5648 17.011 38.5693 16.9755Z" fill="#263238"/>
<path d="M37.5328 24.375C37.5328 24.375 40.7358 24.7565 43.8763 23.117C43.8763 23.117 42.1488 26.2085 37.4678 25.509L37.5328 24.375Z" fill="#6F4439"/>
<path d="M41.2708 10.2925C41.3328 10.4635 41.9603 10.3825 42.6978 10.471C43.4373 10.545 44.0318 10.761 44.1298 10.608C44.1733 10.5345 44.0698 10.374 43.8293 10.2085C43.5908 10.043 43.2103 9.886 42.7678 9.837C42.3253 9.7885 41.9198 9.859 41.6508 9.968C41.3808 10.077 41.2443 10.2115 41.2708 10.2925Z" fill="#263238"/>
<path d="M35.1169 10.4165C35.2174 10.5665 35.6599 10.4485 36.1799 10.4775C36.7009 10.488 37.1329 10.6395 37.2444 10.4975C37.2934 10.428 37.2344 10.2805 37.0514 10.1325C36.8714 9.98502 36.5619 9.85352 36.2044 9.83952C35.8464 9.82602 35.5284 9.93402 35.3374 10.0675C35.1439 10.201 35.0734 10.343 35.1169 10.4165Z" fill="#263238"/>
<path d="M34.1371 6.71099C35.1626 5.36799 36.6506 4.38549 38.2881 3.96999L45.6501 4.89599L46.2771 4.88499C46.4151 4.42099 47.1976 4.17799 47.1976 4.17799C47.8896 3.64749 50.2861 3.61849 51.9561 5.36449C52.5586 5.99449 52.9866 7.57849 53.0006 8.44999C53.0056 8.77999 52.6526 9.23199 52.9281 9.41349C53.0246 9.47699 53.8201 9.46049 53.9331 9.48499C55.8056 9.89499 56.9761 11.555 56.6366 14.0375C56.6196 14.163 56.5756 14.2875 56.5961 14.412C56.6291 14.6085 56.7876 14.755 56.9241 14.9C57.8156 15.8435 58.0321 17.3615 57.4401 18.5165C57.2576 18.873 57.0031 19.2065 56.9391 19.602C56.8256 20.31 57.3426 20.9415 57.7436 21.536C58.9451 23.3195 59.2031 25.9105 57.7926 27.534C57.4501 27.9285 57.0081 28.2805 56.8796 28.7875C56.8171 29.035 56.8371 29.295 56.8391 29.5505C56.8481 30.846 56.1651 32.2955 54.8986 32.569C54.1956 32.7205 53.3421 32.522 52.8416 33.039C52.6236 33.264 52.5316 33.5785 52.3926 33.8595C51.8631 34.931 50.5071 35.5145 49.3651 35.1625C48.2226 34.8105 47.8441 30.1755 48.0096 28.9915C46.6261 28.4885 45.6021 28.3995 45.6666 26.9285C45.6666 26.9285 45.8806 24.397 45.4706 23.164C45.0611 21.931 45.8826 19.3065 46.3511 18.0325C46.8196 16.758 46.2611 13.791 46.1361 12.6115C46.1141 12.4055 46.1541 12.0485 46.2341 11.6025L46.2336 11.6035C46.2341 11.6025 46.2346 11.601 46.2346 11.6C46.2856 11.3135 46.3531 10.9905 46.4321 10.644C46.4611 10.3215 46.7266 8.59949 46.7216 8.29849C46.7036 7.18349 45.3191 7.77949 44.2621 8.13499C44.0066 8.22099 43.7386 8.27049 43.4691 8.27749C42.5991 8.30149 41.7281 7.88849 41.1956 7.19999C40.1976 8.26449 38.5846 8.70549 37.1836 8.29699C36.6151 9.09049 36.0371 9.89399 35.2806 10.511C34.5241 11.128 33.5541 11.546 32.5841 11.438C32.5551 9.74799 33.1116 8.05349 34.1371 6.71099Z" fill="#263238"/>
<path d="M39.0235 18.4975C39.23 18.194 39.61 18.0135 39.997 18.036C40.2655 18.0515 40.542 18.1665 40.715 18.376C40.888 18.5855 40.9375 18.8925 40.8005 19.107C40.646 19.349 40.302 19.42 40.004 19.3515C39.706 19.2825 39.4435 19.102 39.194 18.9215C39.125 18.8715 39.0545 18.8195 39.009 18.7485C38.964 18.6775 38.9505 18.5825 38.9985 18.5195" fill="#6F4439"/>
<path d="M40.5208 17.3625C40.4203 17.3615 40.4528 18.0295 39.9048 18.5325C39.3578 19.037 38.6423 18.9975 38.6418 19.091C38.6348 19.1335 38.8068 19.213 39.1078 19.206C39.4033 19.2015 39.8288 19.085 40.1643 18.7775C40.4988 18.469 40.6293 18.0735 40.6383 17.7985C40.6493 17.518 40.5663 17.356 40.5208 17.3625Z" fill="#263238"/>
<path d="M26.5521 137.14L27.3806 145.769C27.3806 145.769 17.9755 149.283 17.873 151.021L35.6541 151.07L35.6441 149.769L34.8981 145.33L33.7991 136.708L26.5521 137.14Z" fill="#455A64"/>
<path d="M32.7328 144.43C33.0853 144.526 33.3298 144.921 33.2488 145.277C33.1678 145.633 32.7683 145.885 32.4138 145.796C32.0598 145.707 31.7518 145.241 31.8723 144.896C31.9923 144.552 32.4783 144.281 32.8003 144.453" fill="#9FAAC9"/>
<path d="M35.6541 151.07L35.6441 149.769L18.5891 150.096C18.5891 150.096 17.7801 150.451 17.8726 151.021L35.6541 151.07Z" fill="#263238"/>
<path d="M27.085 145.678C27.088 145.767 27.5325 145.806 27.9705 146.09C28.416 146.363 28.6425 146.748 28.724 146.712C28.806 146.695 28.672 146.164 28.1355 145.829C27.603 145.489 27.066 145.596 27.085 145.678Z" fill="#263238"/>
<path d="M25.1785 146.471C25.1585 146.557 25.5435 146.708 25.8465 147.083C26.1605 147.449 26.2375 147.855 26.326 147.851C26.4095 147.865 26.47 147.344 26.0845 146.885C25.703 146.422 25.1805 146.387 25.1785 146.471Z" fill="#263238"/>
<path d="M24.1008 148.758C24.1813 148.777 24.3043 148.333 24.0748 147.847C23.8488 147.359 23.4293 147.168 23.3918 147.242C23.3418 147.315 23.6123 147.576 23.7943 147.978C23.9858 148.375 24.0123 148.75 24.1008 148.758Z" fill="#263238"/>
<path d="M26.4544 143.602C26.4919 143.683 26.8993 143.56 27.4013 143.592C27.9043 143.615 28.2959 143.782 28.3414 143.706C28.3929 143.642 28.0104 143.314 27.4179 143.284C26.8269 143.249 26.4104 143.532 26.4544 143.602Z" fill="#263238"/>
<path d="M48.403 137.384L49.165 145.866C49.165 145.866 39.904 149.261 39.7935 150.969L57.2615 151.123L57.2595 149.846L56.5535 145.48L55.5255 137.003L48.403 137.384Z" fill="#455A64"/>
<path d="M54.4311 144.583C54.7766 144.679 55.0146 145.068 54.9326 145.418C54.8511 145.767 54.4566 146.012 54.1096 145.922C53.7621 145.833 53.4626 145.373 53.5826 145.035C53.7026 144.697 54.1816 144.435 54.4971 144.605" fill="#9FAAC9"/>
<path d="M57.2608 151.123L57.2588 149.846L40.5023 150.064C40.5023 150.064 39.7053 150.408 39.7928 150.969L57.2608 151.123Z" fill="#263238"/>
<path d="M48.8755 145.774C48.878 145.862 49.3145 145.903 49.7425 146.185C50.1785 146.456 50.3985 146.835 50.479 146.8C50.5595 146.784 50.431 146.261 49.9065 145.929C49.3845 145.592 48.8565 145.694 48.8755 145.774Z" fill="#263238"/>
<path d="M46.9974 146.543C46.9769 146.627 47.3544 146.778 47.6499 147.148C47.9559 147.509 48.0294 147.908 48.1164 147.905C48.1984 147.919 48.2609 147.408 47.8849 146.954C47.5129 146.498 46.9994 146.459 46.9974 146.543Z" fill="#263238"/>
<path d="M45.924 148.783C46.0035 148.802 46.1266 148.366 45.9041 147.888C45.6851 147.407 45.274 147.217 45.2365 147.29C45.187 147.361 45.451 147.619 45.6275 148.015C45.8135 148.406 45.837 148.774 45.924 148.783Z" fill="#263238"/>
<path d="M48.2677 143.732C48.3042 143.811 48.7051 143.692 49.1981 143.728C49.6921 143.753 50.0757 143.921 50.1212 143.846C50.1722 143.783 49.7982 143.458 49.2167 143.424C48.6357 143.387 48.2252 143.663 48.2677 143.732Z" fill="#263238"/>
<path d="M26.1672 62.098C26.1672 62.098 21.9527 74.3045 21.8072 83.385C21.6617 92.4655 21.5167 106.905 23.4057 122.833C25.2952 138.761 26.1672 145.162 26.1672 145.162H35.7592C35.7592 145.162 36.7767 135.188 36.6312 126.257C36.4857 117.325 35.7877 114.497 36.6452 104.672C37.5032 94.847 38.8602 88.946 40.2892 85.969C40.2892 85.969 44.2482 81.2625 44.5392 74.8065C44.8297 68.3505 42.5452 62.802 42.5452 62.802L26.1672 62.098Z" fill="#263238"/>
<path d="M34.6914 79.223C34.8509 79.7135 37.6974 99.7255 39.7739 108.553C41.8504 117.38 44.1604 119.716 44.5654 126.896C45.0314 135.154 47.2989 145.162 47.2989 145.162H57.5124C57.5124 145.162 56.0764 129.896 54.6399 117.964C53.2034 106.031 51.1289 91.3195 51.4479 86.906C51.7669 82.4925 52.5649 77.042 51.4479 70.8585C50.3309 64.675 47.9154 63.045 47.9154 63.045L39.2504 62.653L34.6914 79.223Z" fill="#263238"/>
<path d="M44.3044 67.7765C44.3109 67.773 44.3649 67.8795 44.4629 68.087C44.5734 68.2895 44.6774 68.611 44.8094 69.0265C45.0459 69.866 45.2024 71.1295 45.1464 72.6845C45.0969 74.239 44.838 76.083 44.3065 78.07C44.0365 79.0615 43.6834 80.089 43.1919 81.0995C42.7024 82.113 42.0229 83.066 41.3464 84.028C39.9579 85.9405 39.2724 88.1185 38.7534 90.0855C38.2484 92.065 37.9774 93.891 37.7839 95.4255C37.5954 96.9615 37.4825 98.21 37.3975 99.072C37.3555 99.488 37.3224 99.8185 37.2974 100.065C37.2724 100.292 37.2559 100.41 37.2484 100.41C37.2409 100.409 37.2435 100.289 37.2545 100.061C37.269 99.814 37.2889 99.482 37.3144 99.065C37.3739 98.2005 37.4639 96.949 37.6334 95.4075C37.8084 93.8675 38.0644 92.032 38.5619 90.037C38.8114 89.0405 39.1244 88.005 39.5279 86.9605C39.7344 86.439 39.9674 85.916 40.2409 85.4035C40.5169 84.8925 40.8329 84.395 41.1699 83.9065C41.8519 82.937 42.5189 82.003 43.0034 81.0065C43.4899 80.0125 43.8429 78.9995 44.1159 78.017C44.6534 76.049 44.9264 74.2185 44.9944 72.678C45.0689 71.136 44.9374 69.8835 44.7279 69.047C44.6094 68.633 44.5194 68.31 44.4224 68.1035C44.3394 67.893 44.2979 67.78 44.3044 67.7765Z" fill="#455A64"/>
<path d="M3.69881 37.173C5.46031 38.2265 8.64132 39.212 8.64132 39.212L12.2073 36.362C12.2073 36.362 9.65632 31.7 8.83532 30.379C8.61332 30.022 8.27531 29.3475 8.17031 28.969C7.89481 27.9765 7.16681 28.399 7.03231 29.1805C6.99431 29.4015 7.14979 30.1505 7.25429 30.4385C7.57279 31.318 7.50332 31.95 7.50332 31.95C7.50332 31.95 7.24332 31.729 6.60232 31.2975C5.90432 30.8275 3.54381 28.8595 2.54681 28.036C1.05731 26.805 0.306815 27.568 0.500815 28.044C0.742316 28.6355 4.4398 31.224 4.3073 31.6675C4.3073 31.6675 3.5953 32.072 3.4948 32.5325C3.3943 32.9935 3.50182 33.4495 3.50182 33.4495C3.50182 33.4495 2.8348 33.5145 2.6563 33.943C2.4778 34.3715 2.70681 34.9745 2.70681 34.9745C2.70681 34.9745 2.08879 35.032 2.0173 35.368C1.9458 35.7045 2.37381 36.381 3.69881 37.173Z" fill="#AE7461"/>
<path d="M11.6123 35.0815C11.6658 35.2425 19.2589 43.016 19.2589 43.016C19.2589 43.016 25.5954 35.8785 27.5244 33.253C29.4534 30.6275 32.3788 27.407 34.8973 26.8045C37.4158 26.2015 40.9149 27.8235 40.9149 27.8235L36.4543 36.996L30.8228 44.7385C30.8228 44.7385 24.7373 52.382 21.8438 53.5605C18.9503 54.7395 16.1159 53.0465 14.8834 51.7605C13.6509 50.4745 6.33984 39.3615 6.33984 39.3615L11.6123 35.0815Z" fill="#FCBD01"/>
<path d="M53.916 29.8325L36.4436 26.805C36.4436 26.805 31.5921 35.346 29.7771 44.321C27.9621 53.296 25.8936 62.2625 25.8936 62.2625L42.0331 64.251C43.7136 64.458 45.4146 64.4345 47.0886 64.1815L48.7701 63.927L47.3876 58.228C49.6941 52.468 51.3776 47.547 52.3771 43.483C54.5466 34.666 53.916 29.8325 53.916 29.8325Z" fill="#FCBD01"/>
<path d="M36.0375 38.367C36.0485 38.377 35.9465 38.5125 35.7535 38.7495C35.531 39.021 35.2575 39.3555 34.934 39.7505C34.242 40.595 33.304 41.7765 32.265 43.081C31.226 44.386 30.267 45.555 29.544 46.3765C29.1835 46.788 28.885 47.1155 28.6715 47.335C28.459 47.555 28.336 47.672 28.325 47.6625C28.314 47.6525 28.4155 47.517 28.609 47.28C28.8315 47.0085 29.105 46.674 29.4285 46.279C30.1205 45.4345 31.059 44.253 32.098 42.948C33.1365 41.6435 34.0955 40.475 34.8185 39.653C35.1795 39.2415 35.4775 38.914 35.691 38.6945C35.904 38.474 36.0265 38.357 36.0375 38.367Z" fill="#263238"/>
<path d="M47.1218 58.4875C47.1283 58.5125 46.7148 58.653 46.0258 58.8025C45.3373 58.953 44.3703 59.099 43.2933 59.141C42.2163 59.1815 41.2403 59.1105 40.5428 59.0135C39.8443 58.917 39.4213 58.809 39.4258 58.7835C39.4313 58.7515 39.8618 58.807 40.5588 58.864C41.2553 58.922 42.2203 58.9685 43.2853 58.9285C44.3498 58.8865 45.3083 58.766 45.9983 58.6545C46.6883 58.5445 47.1138 58.456 47.1218 58.4875Z" fill="#263238"/>
<path d="M19.0889 47.646C19.0304 47.645 18.9969 46.654 19.0144 45.432C19.0319 44.21 19.0934 43.22 19.1519 43.221C19.2104 43.222 19.2439 44.213 19.2264 45.435C19.2089 46.657 19.1474 47.647 19.0889 47.646Z" fill="#263238"/>
<g opacity="0.3">
<path d="M53.3533 31.815L42.4358 30.841C42.0388 31.7595 42.6244 32.9645 43.5919 33.2205C43.0064 34.251 42.9879 35.581 43.5449 36.627C44.1014 37.673 45.2153 38.401 46.3968 38.4905C46.6893 38.5125 46.9908 38.4995 47.2673 38.599C47.8723 38.817 48.1619 39.481 48.5254 40.012C49.0039 40.711 49.7293 41.262 50.5603 41.424C51.3918 41.5855 52.3199 41.3165 52.8574 40.6625C53.3924 40.0115 53.4813 39.1125 53.5233 38.271C53.6298 36.119 53.5728 33.9585 53.3533 31.815Z" fill="black"/>
</g>
<g opacity="0.3">
<path d="M29.1162 46.8875C30.8967 46.527 32.5372 45.5135 33.6567 44.083C34.7762 42.6525 35.3657 40.8165 35.2882 39.0015C33.0032 41.4795 31.0762 44.6545 29.1162 46.8875Z" fill="black"/>
</g>
<path d="M55.8612 25.0855L46.5447 14.7175C46.8857 17.3485 45.8942 19.9665 44.7027 22.3375C44.0247 23.687 43.2682 25.2915 43.9802 26.623C43.3982 27.272 42.8082 27.934 42.4412 28.725C42.0742 29.516 41.9577 30.4695 42.3412 31.2525C42.7247 32.0355 43.6967 32.5485 44.5102 32.236C44.1247 33.293 44.4432 34.5695 45.2797 35.322C46.1162 36.0745 47.4192 36.256 48.4297 35.7615C48.6837 36.832 49.2617 37.857 50.1717 38.4755C51.0817 39.094 52.3447 39.2385 53.2922 38.6795C54.2397 38.121 54.7207 36.808 54.2122 35.8325C56.2622 35.3795 57.5427 33.17 57.6032 31.0715C57.6637 28.973 56.7837 26.9715 55.8612 25.0855Z" fill="#263238"/>
<path d="M36.5938 7.98801C36.5963 7.99501 36.5438 8.01601 36.4403 8.04951C36.3358 8.07601 36.1739 8.10601 35.9654 8.08251C35.5604 8.04601 34.9328 7.78151 34.5553 7.11201C34.3643 6.78451 34.2858 6.34851 34.3603 5.90951C34.4348 5.46951 34.6588 5.02951 35.0003 4.66701C35.3383 4.30251 35.8098 4.02051 36.3378 3.89901C36.8648 3.77201 37.4368 3.78601 37.9893 3.91551C38.3113 3.99251 38.6188 4.10501 38.8968 4.23801L38.7538 4.29351C39.1458 3.33401 39.9113 2.63701 40.7053 2.28251C41.5063 1.91601 42.3273 1.91101 42.9553 2.04801C43.5913 2.18451 44.0523 2.44901 44.3378 2.65801C44.4818 2.76301 44.5853 2.85401 44.6503 2.92101C44.7158 2.98701 44.7478 3.02401 44.7428 3.02901C44.7308 3.04251 44.5883 2.91001 44.2948 2.72201C44.0023 2.53701 43.5443 2.30001 42.9283 2.18701C42.3183 2.07301 41.5388 2.09501 40.7843 2.45351C40.0348 2.80051 39.3153 3.46951 38.9503 4.37251L38.9083 4.47601L38.8068 4.42801C38.5413 4.30201 38.2478 4.19551 37.9423 4.12251C37.4168 3.99951 36.8788 3.98601 36.3873 4.10151C35.8938 4.21251 35.4633 4.46701 35.1433 4.80201C34.8228 5.13501 34.6108 5.53901 34.5353 5.94051C34.4613 6.34351 34.5224 6.735 34.6894 7.0415C35.0209 7.6685 35.5983 7.94351 35.9778 8.00101C36.3703 8.06651 36.5893 7.95951 36.5938 7.98801Z" fill="#455A64"/>
<path d="M56.3448 14.509C56.3278 14.501 56.4228 14.3165 56.5223 13.9595C56.6193 13.605 56.7098 13.0615 56.6048 12.4035C56.5033 11.753 56.1843 10.978 55.5138 10.3945C54.8593 9.81152 53.8763 9.41802 52.8463 9.52602L52.6903 9.54253L52.7343 9.39102C52.8208 9.09252 52.8783 8.76702 52.8948 8.43402C52.9513 7.28202 52.5328 6.18352 51.8833 5.43052C51.2383 4.66052 50.3743 4.26302 49.6423 4.09002C48.8998 3.91552 48.2703 3.96252 47.8513 4.03452C47.4298 4.11002 47.2058 4.19752 47.1988 4.17802C47.1963 4.17102 47.2503 4.14552 47.3563 4.10202C47.4613 4.05602 47.6228 4.00502 47.8348 3.95352C48.2573 3.85502 48.9028 3.78202 49.6748 3.94352C50.4348 4.10302 51.3443 4.50102 52.0313 5.30302C52.7213 6.08652 53.1658 7.23302 53.1068 8.44402C53.0893 8.79402 53.0288 9.13702 52.9363 9.45152L52.8243 9.31652C53.9243 9.20552 54.9568 9.63102 55.6398 10.2545C56.3408 10.881 56.6598 11.7055 56.7458 12.383C56.8358 13.07 56.7193 13.6265 56.5973 13.982C56.5368 14.1615 56.4758 14.295 56.4273 14.3815C56.3788 14.4685 56.3508 14.512 56.3448 14.509Z" fill="#455A64"/>
<path d="M47.4483 32.268C47.4438 32.274 47.3998 32.2465 47.3183 32.188C47.2353 32.132 47.1238 32.036 46.9873 31.9035C46.7208 31.636 46.3708 31.1915 46.1328 30.547C45.8963 29.91 45.7853 29.056 46.0493 28.1745C46.3128 27.302 46.9563 26.445 47.8798 25.9305C48.2443 25.725 48.6363 25.5835 49.0238 25.5125L48.9653 25.686C48.3448 24.995 48.1428 24.078 48.2538 23.3165C48.3588 22.539 48.7923 21.941 49.2268 21.5805C49.6668 21.212 50.1093 21.052 50.4118 20.9845C50.5638 20.95 50.6843 20.936 50.7658 20.934C50.8473 20.931 50.8898 20.9325 50.8903 20.939C50.8923 20.9565 50.7228 20.9705 50.4313 21.057C50.1428 21.1445 49.7258 21.3195 49.3178 21.685C48.9143 22.0445 48.5233 22.614 48.4373 23.341C48.3443 24.0555 48.5453 24.9115 49.1203 25.545L49.2463 25.684L49.0618 25.7185C48.6978 25.787 48.3288 25.9215 47.9838 26.1155C47.1098 26.602 46.4948 27.411 46.2363 28.2325C45.9768 29.0605 46.0643 29.8775 46.2748 30.4975C46.4863 31.124 46.8058 31.5685 47.0483 31.8475C47.2953 32.125 47.4608 32.252 47.4483 32.268Z" fill="#455A64"/>
<path d="M47.2955 9.45555L47.0045 8.14105C46.0175 10.0166 45.682 12.2276 46.069 14.3111C46.2485 15.2796 46.5711 16.3191 46.1521 17.2106C45.8656 17.8196 45.2785 18.2361 44.942 18.8191C44.5165 19.5566 44.8306 21.4986 44.7211 21.8816C44.4721 22.7526 43.6286 23.3091 43.4296 24.3621C43.2306 25.4146 43.4836 26.6866 44.4296 27.1901C46.2101 24.2536 48.032 21.2016 48.451 17.7931C48.796 14.9861 48.156 12.1496 47.2955 9.45555Z" fill="#263238"/>
<path d="M52.6934 16.494C52.6929 16.501 52.6409 16.505 52.5414 16.5025C52.4424 16.4995 52.2959 16.4885 52.1089 16.4575C51.7424 16.392 51.1814 16.2545 50.6504 15.8015C50.3914 15.5735 50.1529 15.263 50.0134 14.875C49.8734 14.493 49.8384 14.0155 50.0349 13.58C50.2244 13.1545 50.6154 12.771 51.1344 12.664C51.3904 12.6175 51.6724 12.635 51.9189 12.776C52.1669 12.91 52.3484 13.2075 52.2989 13.5155C52.2754 13.67 52.1839 13.81 52.0599 13.9C51.9334 13.9875 51.7869 14.022 51.6499 14.0295C51.3744 14.0405 51.1169 13.964 50.8909 13.848C50.4479 13.623 50.0719 13.3135 49.7769 12.9685C49.1774 12.2785 48.9204 11.453 48.8959 10.7735C48.8649 10.0875 49.0294 9.54553 49.1769 9.19953C49.2529 9.02603 49.3244 8.89753 49.3779 8.81353C49.4324 8.73053 49.4639 8.68903 49.4704 8.69253C49.4869 8.70203 49.3794 8.88053 49.2539 9.22953C49.1329 9.57653 48.9969 10.1075 49.0459 10.7645C49.0884 11.4155 49.3479 12.1915 49.9244 12.84C50.2084 13.164 50.5664 13.453 50.9844 13.6625C51.1849 13.765 51.4154 13.829 51.6389 13.819C51.8624 13.8145 52.0579 13.6875 52.0894 13.4815C52.1214 13.276 52.0024 13.0605 51.8134 12.9585C51.6249 12.848 51.3874 12.8295 51.1734 12.8675C50.7374 12.9525 50.3834 13.2855 50.2129 13.66C50.0364 14.037 50.0574 14.463 50.1789 14.816C50.2994 15.1735 50.5144 15.4695 50.7509 15.689C51.2354 16.128 51.7709 16.288 52.1254 16.3755C52.4874 16.4605 52.6949 16.476 52.6934 16.494Z" fill="#455A64"/>
<path d="M48.4414 63.594C48.4299 63.597 48.3839 63.457 48.3084 63.193C48.2274 62.893 48.1239 62.511 47.9979 62.0435C47.7349 61.0085 47.3764 59.599 46.9504 57.922L46.9429 57.8925L46.9524 57.8615C47.4729 56.1825 48.1404 54.21 48.8994 52.12C50.0229 49.0225 51.1109 46.2465 51.9079 44.2415C52.3014 43.27 52.6254 42.4705 52.8674 41.873C52.9764 41.619 53.0664 41.408 53.1409 41.234C53.2059 41.089 53.2444 41.0145 53.2529 41.0175C53.2614 41.021 53.2394 41.1015 53.1899 41.253C53.1279 41.4315 53.0529 41.6485 52.9624 41.9095C52.7399 42.514 52.4419 43.324 52.0799 44.3075C51.3274 46.3295 50.2664 49.115 49.1444 52.2085C48.3864 54.296 47.7074 56.2605 47.1664 57.9285L47.1684 57.8685C47.5579 59.5545 47.8849 60.9715 48.1254 62.012C48.2274 62.4855 48.3104 62.8725 48.3759 63.176C48.4299 63.446 48.4529 63.591 48.4414 63.594Z" fill="#263238"/>
<path d="M51.0811 55.597C51.1226 55.603 51.0451 56.2445 51.0376 57.285C51.0246 58.3245 51.0861 59.765 51.3226 61.3325C51.5681 62.8965 51.9551 64.29 52.4191 65.2135C52.8636 66.15 53.3481 66.593 53.3101 66.6295C53.2976 66.6425 53.1771 66.535 52.9671 66.3255C52.7666 66.11 52.5036 65.765 52.2551 65.2975C51.7366 64.3705 51.3136 62.9565 51.0651 61.3725C50.8256 59.785 50.7931 58.328 50.8536 57.2795C50.8786 56.755 50.9306 56.332 50.9766 56.0425C51.0271 55.7525 51.0636 55.5945 51.0811 55.597Z" fill="#263238"/>
<path d="M51.1318 55.375C51.1473 55.389 51.0628 55.517 50.9313 55.7485C50.8178 55.9945 50.6683 56.3555 50.5513 56.828C50.3038 57.767 50.1163 59.108 50.0713 60.5955C50.0133 62.084 50.1293 63.4325 50.2893 64.392C50.4488 65.3535 50.6738 65.9175 50.6308 65.935C50.6143 65.942 50.5473 65.8055 50.4398 65.55C50.3808 65.4235 50.3298 65.2625 50.2753 65.0735C50.2168 64.8855 50.1543 64.67 50.1083 64.427C49.8988 63.461 49.7523 62.0935 49.8108 60.587C49.8563 59.081 50.0753 57.7235 50.3743 56.7765C50.5163 56.301 50.6978 55.936 50.8433 55.698C51.0093 55.4705 51.1218 55.364 51.1318 55.375Z" fill="#263238"/>
<path d="M51.3583 55.849C51.2938 55.8805 50.7678 54.829 50.1838 53.501C49.5998 52.172 49.1808 51.074 49.2478 51.048C49.3148 51.022 49.8408 52.073 50.4223 53.3965C51.0038 54.719 51.4228 55.8175 51.3583 55.849Z" fill="#263238"/>
</svg>
