<svg width="35" height="146" viewBox="0 0 35 146" fill="none" xmlns="http://www.w3.org/2000/svg">
<path d="M11.2779 18.4305C10.6744 16.429 9.9424 14.4066 10.0294 12.3181L8.7504 8.55355C6.8709 8.28255 4.8829 8.89605 3.4829 10.1791C2.0829 11.4621 1.2984 13.3885 1.4039 15.2845C1.4704 16.471 1.86189 17.6131 2.05889 18.7851C2.25589 19.9571 2.2319 21.2475 1.5534 22.223C1.2484 22.662 0.804897 23.0615 0.774897 23.5955C0.736897 24.2775 1.4474 24.8111 2.1299 24.8411C2.8119 24.8711 3.45339 24.5445 4.05789 24.227C3.92289 25.232 4.61089 26.2836 5.58539 26.5616C6.56039 26.84 7.6999 26.311 8.1159 25.3865C8.0259 26.317 9.2019 26.981 10.0894 26.687C10.9764 26.393 11.5234 25.4905 11.7829 24.5925C12.3644 22.5835 11.8819 20.432 11.2779 18.4305Z" fill="#263238"/>
<path d="M12.8394 134.45L13.0624 130.52L19.9214 130.38L19.7339 135.192L17.2159 136.652L12.8394 134.45Z" fill="#FFBF9D"/>
<path d="M19.8988 134.299L19.8883 134.749C19.8883 134.749 27.4443 138.022 27.4868 139.474L12.3218 138.989L12.6893 133.949C14.9108 135.065 17.2668 135.258 19.8988 134.299Z" fill="#455A64"/>
<g opacity="0.6">
<path d="M14.1736 135.611C13.8776 135.682 13.6641 136.006 13.7226 136.304C13.7811 136.603 14.1081 136.823 14.4056 136.757C14.7026 136.692 14.9711 136.311 14.8791 136.021C14.7876 135.73 14.3891 135.493 14.1166 135.628" fill="white"/>
</g>
<g opacity="0.6">
<path d="M12.3218 138.989L12.4103 137.777L26.9133 138.685C26.9133 138.685 27.5788 139.001 27.4873 139.474L12.3218 138.989Z" fill="white"/>
</g>
<path d="M19.9405 134.793C19.936 134.867 19.5645 134.889 19.1925 135.115C18.8145 135.332 18.6165 135.647 18.5495 135.615C18.4815 135.599 18.6065 135.16 19.0615 134.893C19.5135 134.623 19.959 134.726 19.9405 134.793Z" fill="#263238"/>
<path d="M21.5099 135.502C21.5244 135.575 21.1999 135.69 20.9384 135.995C20.6679 136.293 20.5939 136.629 20.5199 136.624C20.4499 136.633 20.4124 136.198 20.7449 135.825C21.0739 135.449 21.5109 135.431 21.5099 135.502Z" fill="#263238"/>
<path d="M22.3527 137.435C22.2852 137.448 22.1937 137.075 22.3967 136.676C22.5967 136.275 22.9512 136.126 22.9807 136.189C23.0207 136.251 22.7887 136.461 22.6272 136.792C22.4577 137.118 22.4267 137.43 22.3527 137.435Z" fill="#263238"/>
<path d="M14.8698 125.673L13.4648 137.362L8.11328 136.376L8.19328 124.845L14.8698 125.673Z" fill="#FFBF9D"/>
<path d="M8.17272 134.156C8.17272 134.156 11.6727 137.209 13.7672 135.145L14.1232 136.3L15.3957 144.387C15.4782 144.911 15.1702 145.443 14.6462 145.578C14.2427 145.682 13.8257 145.55 13.5647 145.247C12.1662 143.624 7.05322 137.628 7.19122 136.908L7.43072 134.985C7.48072 134.586 7.77422 134.258 8.17272 134.156Z" fill="#455A64"/>
<g opacity="0.6">
<path d="M14.4543 145.61L7.26429 136.238L7.21829 136.659C7.12629 137.11 7.31029 137.313 7.49929 137.631C8.06029 138.571 9.66579 140.713 13.5338 145.244C13.7593 145.508 14.1058 145.646 14.4543 145.61Z" fill="white"/>
</g>
<g opacity="0.6">
<path d="M8.59858 135.12C8.83508 135.32 8.87808 135.705 8.68408 135.943C8.49008 136.18 8.08858 136.224 7.84808 136.028C7.60808 135.832 7.54208 135.371 7.76208 135.156C7.98208 134.941 8.45658 134.915 8.64208 135.161" fill="white"/>
</g>
<path d="M12.5954 141.016C12.6499 141.05 12.9369 140.555 13.5734 140.341C14.2034 140.109 14.7519 140.31 14.7714 140.251C14.7829 140.227 14.6619 140.136 14.4269 140.077C14.1939 140.018 13.8459 140.013 13.4959 140.135C13.1464 140.258 12.8829 140.479 12.7439 140.669C12.6029 140.86 12.5709 141.005 12.5954 141.016Z" fill="#263238"/>
<path d="M13.1767 142.425C13.2207 142.473 13.5832 142.186 14.1267 142.097C14.6682 141.995 15.1132 142.14 15.1362 142.08C15.1712 142.033 14.7032 141.769 14.0852 141.881C13.4667 141.986 13.1267 142.393 13.1767 142.425Z" fill="#263238"/>
<path d="M11.4286 139.164C11.4711 139.216 12.0266 138.772 12.8586 138.56C13.6876 138.335 14.3996 138.447 14.4086 138.381C14.4311 138.33 13.6881 138.11 12.7986 138.348C11.9066 138.577 11.3821 139.131 11.4286 139.164Z" fill="#263238"/>
<path d="M11.5175 136.756C11.5385 136.818 12.1265 136.65 12.8625 136.705C13.599 136.749 14.161 136.994 14.1895 136.935C14.223 136.889 13.668 136.535 12.8765 136.486C12.086 136.429 11.4905 136.706 11.5175 136.756Z" fill="#263238"/>
<path d="M13.2821 136.73C13.2951 136.73 13.3081 136.594 13.2671 136.352C13.2256 136.112 13.1261 135.762 12.8831 135.385C12.7581 135.208 12.6246 134.977 12.3291 134.865C12.1821 134.809 11.9726 134.849 11.8616 134.989C11.7516 135.125 11.7261 135.292 11.7351 135.45C11.7951 136.082 12.3996 136.656 13.1366 136.698C13.8756 136.726 14.5081 136.273 14.7561 135.707C14.8086 135.561 14.8391 135.384 14.7466 135.221C14.6556 135.056 14.4426 135.003 14.2981 135.037C13.9976 135.102 13.8196 135.286 13.6506 135.424C13.3196 135.724 13.1241 136.03 13.0131 136.246C12.9016 136.464 12.8706 136.597 12.8826 136.601C12.9206 136.625 13.1031 136.094 13.7566 135.54C13.9221 135.412 14.1121 135.251 14.3291 135.216C14.4346 135.199 14.5296 135.234 14.5746 135.315C14.6196 135.393 14.6081 135.52 14.5616 135.634C14.3511 136.098 13.7721 136.511 13.1476 136.477C12.5261 136.449 11.9951 135.943 11.9421 135.435C11.9311 135.312 11.9551 135.187 12.0166 135.109C12.0771 135.033 12.1766 135.007 12.2736 135.037C12.4786 135.102 12.6281 135.302 12.7511 135.469C13.2381 136.173 13.2376 136.743 13.2821 136.73Z" fill="#263238"/>
<path d="M28.7756 51.557C28.7756 51.557 29.8431 56.5515 31.0726 65.615C32.1911 73.8615 28.5256 97.92 27.5726 102.96C26.9241 106.39 23.7281 123.536 20.0596 133.939L14.6826 133.846C14.6826 133.846 18.7731 99.028 18.6906 95.392C18.6081 91.7565 17.6341 72.4055 17.6341 72.4055L15.9986 57.695L28.7756 51.557Z" fill="#263238"/>
<path d="M7.47271 49.925C7.90621 50.078 17.3627 56.991 17.3627 56.991C17.3627 56.991 21.8392 96.8736 22.1847 102.113C22.5302 107.353 14.6827 133.846 14.6827 133.846L7.27121 133.718C7.27121 133.718 7.72021 116.136 8.97571 110.779C10.2312 105.422 10.2537 104.114 9.58521 100.759C8.91621 97.4035 3.09821 79.5875 1.36221 70.69C-0.374293 61.7925 7.47271 49.925 7.47271 49.925Z" fill="#263238"/>
<path d="M21.0848 67.696C21.0888 67.6955 21.0983 67.7536 21.1138 67.8671C21.1293 67.9911 21.1498 68.1581 21.1758 68.3711C21.2253 68.8266 21.2963 69.4785 21.3873 70.312C21.5628 71.9985 21.8033 74.44 22.0623 77.461C22.3188 80.482 22.6048 84.081 22.8108 88.086C22.9003 90.089 22.9933 92.1926 22.9753 94.3776C22.9713 94.9236 22.9423 95.4751 22.9268 96.0311C22.9008 96.5866 22.8348 97.1481 22.7758 97.7101C22.6023 98.8261 22.3958 99.9505 22.1838 101.088C20.4213 110.175 18.6243 118.356 17.3423 124.282C16.6888 127.233 16.1593 129.625 15.7903 131.292C15.6033 132.109 15.4568 132.748 15.3543 133.195C15.3038 133.403 15.2643 133.567 15.2353 133.688C15.2073 133.799 15.1908 133.856 15.1873 133.855C15.1838 133.854 15.1923 133.796 15.2133 133.683C15.2373 133.561 15.2698 133.396 15.3108 133.185C15.4038 132.736 15.5363 132.094 15.7063 131.273C16.0588 129.603 16.5648 127.206 17.1893 124.249C18.4318 118.315 20.2048 110.128 21.9663 101.047C23.0883 96.527 22.7413 92.0915 22.6068 88.096C22.4123 84.0945 22.1423 80.4955 21.9063 77.474C21.6673 74.4525 21.4508 72.009 21.3013 70.3205C21.2283 69.4855 21.1708 68.8326 21.1313 68.3761C21.1143 68.1621 21.1008 67.9945 21.0913 67.87C21.0833 67.755 21.0813 67.6965 21.0848 67.696Z" fill="#455A64"/>
<path d="M9.42642 4.67556C11.5429 2.08856 14.3854 0.599068 17.7279 0.543568C19.6134 0.512568 20.3939 0.904066 21.7519 1.27057C23.1099 1.63707 24.3349 2.36556 25.1449 3.51506C26.1069 4.88056 26.9154 6.41007 27.0974 8.07057C27.2844 9.77657 26.9794 12.0186 26.4129 13.6386C25.5869 15.9991 25.3544 16.6596 24.3469 18.0486L21.3879 18.7851C18.9834 18.8671 16.5454 18.9461 14.2029 18.3971C11.8604 17.8486 9.58392 16.5881 8.32942 14.5351C6.58592 11.6836 7.30992 7.26256 9.42642 4.67556Z" fill="#263238"/>
<path d="M13.3014 4.6471L19.1059 2.3396L20.6224 2.5156C24.0344 2.5276 26.3874 6.2906 26.4099 9.0541C26.4349 12.1241 26.3439 15.8736 25.8559 18.1361C24.8749 22.6861 20.9914 23.0651 20.9914 23.0651C20.9914 23.0651 21.0709 25.4901 21.0999 27.0176C17.8499 30.6321 14.3609 30.7971 11.7129 26.4041L11.7669 6.2046C11.7964 5.3666 12.4629 4.6896 13.3014 4.6471Z" fill="#FFBF9D"/>
<path d="M25.0267 12.7886C25.0207 13.1001 24.7517 13.3521 24.4262 13.3516C24.1017 13.3511 23.8427 13.0991 23.8487 12.7876C23.8547 12.4761 24.1237 12.2241 24.4482 12.2246C24.7737 12.2246 25.0327 12.4771 25.0267 12.7886Z" fill="#263238"/>
<path d="M25.3691 10.5891C25.2921 10.6621 24.8641 10.3076 24.2301 10.2741C23.5976 10.2321 23.1151 10.5326 23.0506 10.4511C23.0186 10.4151 23.1006 10.2806 23.3111 10.1441C23.5186 10.0086 23.8661 9.88458 24.2606 9.90758C24.6551 9.93158 24.9791 10.0951 25.1616 10.2541C25.3486 10.4146 25.4071 10.5571 25.3691 10.5891Z" fill="#263238"/>
<path d="M21.298 15.5576C21.297 15.5216 21.6945 15.4751 22.337 15.4286C22.4995 15.4206 22.6545 15.3971 22.688 15.2881C22.7325 15.1731 22.6745 14.9951 22.6065 14.8026C22.476 14.4026 22.339 13.9836 22.1955 13.5446C21.6275 11.7546 21.2255 10.2856 21.298 10.2636C21.3705 10.2411 21.8895 11.6746 22.4575 13.4646C22.5935 13.9061 22.724 14.3266 22.848 14.7286C22.8995 14.9156 22.993 15.1301 22.897 15.3681C22.8465 15.4866 22.723 15.5676 22.618 15.5901C22.5125 15.6161 22.4215 15.6126 22.341 15.6131C21.697 15.6126 21.2985 15.5936 21.298 15.5576Z" fill="#263238"/>
<path d="M20.9984 23.0606C20.9984 23.0606 17.8994 23.0901 14.9409 21.0836C14.9409 21.0836 16.4039 24.3551 21.0219 24.1776L20.9984 23.0606Z" fill="#FF9A6C"/>
<path d="M25.3571 7.3701C25.2421 7.5191 24.7626 7.38909 24.1936 7.40509C23.6241 7.40259 23.1466 7.54459 23.0296 7.39859C22.9776 7.32759 23.0481 7.1801 23.2531 7.0351C23.4551 6.8911 23.7976 6.76559 24.1891 6.76059C24.5806 6.75609 24.9246 6.87309 25.1286 7.01259C25.3351 7.15209 25.4071 7.2976 25.3571 7.3701Z" fill="#263238"/>
<path d="M18.0838 12.5591C18.0673 12.8701 18.3173 13.1406 18.6418 13.1636C18.9658 13.1866 19.2423 12.9541 19.2588 12.6431C19.2753 12.3321 19.0253 12.0611 18.7013 12.0381C18.3768 12.0146 18.1003 12.2481 18.0838 12.5591Z" fill="#263238"/>
<path d="M16.7961 10.3441C16.8676 10.4221 17.3201 10.0996 17.9546 10.1121C18.5886 10.1156 19.0481 10.4501 19.1186 10.3736C19.1531 10.3396 19.0806 10.1996 18.8811 10.0486C18.6841 9.89809 18.3461 9.74959 17.9511 9.74409C17.5561 9.73959 17.2211 9.87909 17.0271 10.0246C16.8291 10.1711 16.7606 10.3091 16.7961 10.3441Z" fill="#263238"/>
<path d="M17.177 7.74909C17.2995 7.89509 17.7915 7.75459 18.38 7.75759C18.9685 7.74259 19.465 7.87309 19.5825 7.72459C19.634 7.65209 19.558 7.50659 19.3425 7.36659C19.1305 7.22709 18.7735 7.10959 18.369 7.11359C17.9645 7.11809 17.612 7.24259 17.4045 7.38659C17.194 7.53059 17.123 7.67759 17.177 7.74909Z" fill="#263238"/>
<path d="M12.5552 13.9191C12.5732 13.5771 12.2222 12.7496 11.8877 12.6781C10.9942 12.4881 9.36522 12.4711 9.22422 14.7601C9.03172 17.8886 12.2127 17.4366 12.2237 17.3471C12.2322 17.2776 12.4932 15.0996 12.5552 13.9191Z" fill="#FFBF9D"/>
<path d="M11.4304 16.1515C11.4174 16.1405 11.3734 16.1866 11.2789 16.2231C11.1864 16.2586 11.0304 16.2775 10.8709 16.2065C10.5479 16.065 10.3019 15.5231 10.3214 14.9581C10.3309 14.6726 10.4069 14.4055 10.5219 14.187C10.6314 13.964 10.7894 13.8136 10.9574 13.7941C11.1254 13.7656 11.2369 13.8726 11.2699 13.9631C11.3064 14.0531 11.2824 14.1146 11.2989 14.1211C11.3074 14.1296 11.3694 14.0731 11.3519 13.9421C11.3429 13.8791 11.3109 13.8031 11.2409 13.7381C11.1694 13.6726 11.0614 13.6346 10.9444 13.6401C10.7019 13.6421 10.4714 13.8505 10.3454 14.09C10.2059 14.33 10.1134 14.6301 10.1029 14.9506C10.0839 15.5821 10.3704 16.1921 10.8149 16.3506C11.0314 16.4216 11.2194 16.3666 11.3184 16.2986C11.4199 16.2271 11.4409 16.1575 11.4304 16.1515Z" fill="#FF9A6C"/>
<path d="M11.7595 12.6876L12.5545 13.5121C15.987 10.2266 22.6955 1.99956 22.321 2.49006C22.321 2.49006 19.9695 1.52306 17.417 1.95756C14.8645 2.39256 10.0235 3.67006 10.0975 6.68006C10.172 9.69056 11.7595 12.6876 11.7595 12.6876Z" fill="#263238"/>
<path d="M7.21344 11.9966C7.20794 11.9951 7.22444 11.9331 7.26144 11.8156C7.29894 11.6991 7.36593 11.5296 7.47493 11.3226C7.69243 10.9106 8.10844 10.3531 8.78244 9.85106C9.44594 9.33556 10.3664 8.91507 11.4149 8.58457C12.4614 8.24357 13.6409 7.97907 14.7994 7.48207C15.9649 7.00357 17.0044 6.38657 17.8904 5.75057C18.7739 5.10857 19.5034 4.44256 20.0719 3.84356C20.6409 3.24406 21.0544 2.71606 21.3334 2.34656C21.4614 2.17056 21.5654 2.02807 21.6474 1.91507C21.7199 1.81657 21.7604 1.76657 21.7649 1.76957C21.7694 1.77257 21.7384 1.82857 21.6739 1.93307C21.6084 2.03607 21.5164 2.19207 21.3839 2.38307C21.1194 2.76507 20.7169 3.30706 20.1544 3.92106C19.5919 4.53456 18.8639 5.21557 17.9769 5.87007C17.0869 6.51807 16.0389 7.14606 14.8604 7.63006C13.6874 8.13356 12.4994 8.39507 11.4594 8.72557C10.4154 9.04607 9.50993 9.44807 8.84943 9.94207C8.17993 10.4231 7.75993 10.9571 7.52893 11.3526C7.29993 11.7526 7.22994 12.0026 7.21344 11.9966Z" fill="#455A64"/>
<path d="M20.9619 16.9921C20.5324 16.7261 20.1229 16.4416 19.6554 16.2636C19.5679 16.2306 19.4759 16.1981 19.3839 16.2106C19.2654 16.2271 19.1669 16.3151 19.0919 16.4136C18.7974 16.8001 18.7969 17.4016 19.0749 17.8056C19.3529 18.2096 19.8774 18.3936 20.3299 18.2631C20.7819 18.1326 21.0604 17.6171 21.1514 17.1276L20.9619 16.9921Z" fill="#FF9A6C"/>
<path d="M20.8318 17.9751C20.8493 17.9846 20.6073 18.2441 20.0728 18.2731C19.8123 18.2841 19.4813 18.1951 19.2163 17.9566C18.9498 17.7281 18.7568 17.3311 18.8053 16.9156C18.8263 16.7101 18.8973 16.5131 19.0153 16.3526C19.0783 16.2736 19.1343 16.2021 19.2398 16.1416C19.2918 16.1121 19.3693 16.0991 19.4288 16.1121C19.4888 16.1231 19.5338 16.1461 19.5733 16.1661C19.8388 16.3116 20.0923 16.4506 20.3363 16.5841C20.7673 16.8276 21.0268 16.9916 21.0128 17.0186C20.9988 17.0456 20.7143 16.9306 20.2653 16.7226C20.0153 16.6026 19.7548 16.4781 19.4828 16.3476C19.4078 16.3131 19.3753 16.3051 19.3383 16.3276C19.2943 16.3521 19.2343 16.4181 19.1903 16.4791C19.0993 16.6071 19.0418 16.7686 19.0248 16.9381C18.9858 17.2816 19.1343 17.6031 19.3538 17.8081C19.5723 18.0176 19.8438 18.1086 20.0753 18.1181C20.5468 18.1331 20.8163 17.9376 20.8318 17.9751Z" fill="#263238"/>
<path d="M12.4451 17.7431C12.4451 18.3506 11.9526 18.8436 11.3446 18.8436C10.7366 18.8436 10.2441 18.3511 10.2441 17.7431C10.2441 17.1356 10.7366 16.6426 11.3446 16.6426C11.9526 16.6426 12.4451 17.1356 12.4451 17.7431Z" fill="#455A64"/>
<path d="M27.0332 26.29C27.0332 26.29 30.3022 27.423 31.2762 30.335C32.2272 33.1785 33.5712 36.918 33.5712 36.918L27.3672 38.6575L27.0332 26.29Z" fill="#FCBD01"/>
<path d="M5.47425 26.4886L9.65325 24.9001L11.7133 24.1686C12.6418 25.7341 14.6813 26.5051 16.7583 26.4886C18.9603 26.4716 19.9213 25.5526 21.0143 24.1836L21.8723 24.5576L27.0348 26.1101L29.5978 36.8581L29.0648 51.5571L31.3037 62.1816C23.3817 65.3996 9.99175 64.7026 1.53125 60.8616L7.35225 48.9811L5.28975 27.7551L5.47425 26.4886Z" fill="#FCBD01"/>
<path d="M29.3262 38.1535L29.4427 38.338L23.5362 28.984L20.0742 31.8055C20.0742 31.8055 23.6702 41.9045 25.8307 45.463C27.9292 48.92 32.1732 50.2185 34.3097 45.852C35.4047 43.6135 32.9987 37.121 32.9987 37.121L29.3262 38.1535Z" fill="#FFBF9D"/>
<path d="M31.303 41.227L23.5975 28.984L25.246 23.827C25.5075 23.0915 25.551 22.2975 25.3715 21.538C25.074 20.2795 24.6035 18.415 24.3475 18.049C23.954 17.486 23.7595 17.7935 23.7595 17.7935L19.3765 30.0335L20.9035 34.1405" fill="#FFBF9D"/>
<path d="M20.903 34.1405C20.896 34.143 20.8545 34.051 20.78 33.8715C20.7 33.6715 20.595 33.408 20.4625 33.0755C20.185 32.354 19.794 31.337 19.303 30.0605L19.293 30.0345L19.3025 30.007C20.34 27.074 21.8715 22.745 23.6385 17.75L23.643 17.7375L23.651 17.725C23.7385 17.5845 23.933 17.5515 24.0525 17.609C24.1735 17.658 24.251 17.7355 24.3215 17.811C24.4605 17.9565 24.564 18.162 24.6245 18.337C24.76 18.6995 24.867 19.067 24.972 19.439C25.1765 20.1865 25.3695 20.9355 25.5415 21.7225C25.666 22.397 25.6155 23.0935 25.414 23.7315C25.215 24.3495 25.019 24.959 24.826 25.559C24.441 26.757 24.0685 27.9155 23.713 29.0215L23.7 28.9195C25.928 32.495 27.8365 35.5575 29.2025 37.75C29.862 38.8255 30.3895 39.686 30.766 40.3C30.9355 40.5845 31.0705 40.8115 31.1735 40.9845C31.264 41.141 31.3085 41.224 31.3025 41.228C31.2965 41.232 31.2405 41.156 31.1385 41.0065C31.027 40.8385 30.881 40.619 30.6975 40.343C30.307 39.7385 29.759 38.89 29.0745 37.8305C27.689 35.651 25.753 32.6055 23.493 29.05L23.4625 29.0025L23.48 28.948C23.832 27.84 24.201 26.679 24.5825 25.479C24.916 24.27 25.5675 23.0605 25.285 21.77C25.1185 21.011 24.923 20.2455 24.722 19.5095C24.619 19.1415 24.5125 18.776 24.384 18.4305C24.318 18.2495 24.2505 18.113 24.131 17.9845C24.076 17.9235 24.0135 17.8695 23.9605 17.849C23.909 17.8255 23.8835 17.846 23.865 17.863L23.8775 17.838C22.072 22.8195 20.508 27.136 19.4475 30.061L19.447 30.008C19.909 31.295 20.2775 32.32 20.539 33.048C20.6555 33.386 20.7485 33.6545 20.8185 33.858C20.881 34.041 20.9095 34.138 20.903 34.1405Z" fill="#FF9A6C"/>
<path d="M19.2955 33.014L19.848 31.1535C19.848 31.1535 23.153 24.3655 23.376 23.5145C23.599 22.6635 24.532 19.523 23.8435 18.9115C23.8435 18.9115 24.353 17.289 23.697 17.1705C23.0405 17.052 22.73 17.9175 22.73 17.9175C22.73 17.9175 22.829 17.0365 22.4935 16.8845C21.971 16.648 21.5565 17.386 21.5565 17.386C21.5565 17.386 20.985 16.9365 20.3435 17.992C20.3435 17.992 17.503 22.808 17.1495 23.1375C16.796 23.467 16.218 22.46 16.218 22.46C16.218 22.46 15.773 21.08 15.2625 20.5245C14.8755 20.1035 14.2275 20.4425 14.2275 20.4425C14.2275 20.4425 14.174 22.218 14.8705 24.3655C15.168 25.2825 15.9665 28.5565 15.9665 28.5565L14.5655 31.565" fill="#FFBF9D"/>
<path d="M14.5648 31.565C14.5593 31.5625 14.5853 31.491 14.6418 31.356C14.7078 31.2035 14.7928 31.0075 14.8988 30.7625C15.1408 30.2245 15.4788 29.473 15.9038 28.5275L15.8993 28.5725C15.6343 27.5875 15.3168 26.4075 14.9548 25.0635C14.7898 24.388 14.5283 23.6785 14.3798 22.904C14.2253 22.13 14.1123 21.3115 14.1123 20.439V20.3695L14.1738 20.3411C14.4328 20.2206 14.7238 20.147 15.0318 20.241C15.1808 20.2855 15.3203 20.3995 15.4053 20.5115C15.4993 20.622 15.5758 20.7411 15.6498 20.8616C15.9343 21.3491 16.1463 21.8725 16.3348 22.422L16.3243 22.3985C16.4618 22.623 16.6313 22.8625 16.8303 23.0105C16.9398 23.0865 17.0098 23.0955 17.0663 23.0415C17.1428 22.9545 17.2288 22.828 17.3093 22.711C17.6323 22.227 17.9463 21.717 18.2643 21.2005C18.8898 20.1585 19.5353 19.0836 20.1943 17.9866C20.3368 17.7521 20.5003 17.513 20.7408 17.3365C20.9748 17.158 21.3448 17.077 21.6363 17.2825L21.4428 17.321C21.5558 17.1375 21.6833 16.9795 21.8638 16.852C22.0338 16.7215 22.3063 16.6585 22.5263 16.7585C22.6583 16.8095 22.7403 16.934 22.7793 17.0335C22.8213 17.138 22.8423 17.2405 22.8548 17.3405C22.8778 17.542 22.8758 17.733 22.8568 17.9305L22.6088 17.873C22.7243 17.5915 22.8838 17.3355 23.1523 17.1585C23.2858 17.073 23.4523 17.0256 23.6143 17.0351C23.6908 17.0351 23.7793 17.0595 23.8663 17.098C23.9458 17.1505 24.0113 17.2165 24.0508 17.2935C24.1948 17.598 24.1593 17.8865 24.1323 18.157C24.0973 18.43 24.0383 18.689 23.9608 18.948L23.9248 18.819C24.0868 18.9905 24.1528 19.196 24.1793 19.3855C24.2113 19.5775 24.2153 19.766 24.2083 19.95C24.1953 20.319 24.1493 20.6765 24.0868 21.024C23.9658 21.72 23.7963 22.3825 23.6243 23.019C23.5383 23.3305 23.4618 23.6575 23.3293 23.9555C23.2088 24.253 23.0818 24.538 22.9558 24.817C22.6988 25.372 22.4518 25.905 22.2163 26.4145C21.2558 28.4405 20.4518 30.066 19.8953 31.176L19.8983 31.168C19.7138 31.751 19.5688 32.209 19.4633 32.5435C19.4153 32.686 19.3763 32.8015 19.3443 32.8965C19.3163 32.9755 19.2993 33.015 19.2948 33.0135C19.2903 33.012 19.2978 32.97 19.3173 32.8885C19.3423 32.7915 19.3728 32.6735 19.4103 32.528C19.5043 32.19 19.6328 31.727 19.7963 31.138L19.7973 31.1345L19.7998 31.13C20.3358 29.9825 21.1008 28.3461 22.0418 26.3336C22.2723 25.8231 22.5133 25.2885 22.7643 24.7325C22.8873 24.4535 23.0118 24.1676 23.1273 23.8756C23.2523 23.5906 23.3208 23.284 23.4073 22.9615C23.5743 22.327 23.7378 21.6685 23.8533 20.9845C23.9128 20.643 23.9553 20.294 23.9658 19.944C23.9738 19.606 23.9508 19.212 23.7603 19.0035L23.7043 18.9425L23.7243 18.8745C23.7953 18.6345 23.8523 18.3795 23.8838 18.1265C23.9148 17.879 23.9228 17.602 23.8298 17.4165C23.7613 17.243 23.4698 17.2585 23.2873 17.375C23.0938 17.498 22.9413 17.7315 22.8498 17.961L22.5168 18.7975L22.6018 17.9036C22.6183 17.7311 22.6193 17.546 22.5988 17.374C22.5788 17.2065 22.5203 17.0265 22.4268 16.9985C22.1578 16.87 21.8418 17.1585 21.6688 17.4495L21.5963 17.571L21.4753 17.4875C21.3213 17.382 21.0743 17.4061 20.8913 17.5491C20.7008 17.6886 20.5513 17.898 20.4178 18.1195C19.7653 19.2215 19.1203 20.2985 18.4828 21.335C18.1623 21.853 17.8478 22.3615 17.5178 22.853C17.4308 22.9765 17.3558 23.0945 17.2383 23.2245C17.1653 23.2905 17.0433 23.348 16.9378 23.323C16.8333 23.3085 16.7538 23.262 16.6868 23.215C16.4253 23.0145 16.2668 22.7725 16.1108 22.5215L16.1053 22.5125L16.1003 22.4975C15.9208 21.966 15.7113 21.4445 15.4448 20.9835C15.3038 20.761 15.1628 20.524 14.9573 20.4625C14.7493 20.391 14.4863 20.4465 14.2798 20.5435L14.3413 20.4455C14.3363 21.284 14.4408 22.102 14.5868 22.862C14.7268 23.628 14.9753 24.3211 15.1358 25.0071C15.4793 26.3601 15.7808 27.548 16.0323 28.5395L16.0383 28.5631L16.0278 28.5845C15.5778 29.5181 15.2203 30.261 14.9643 30.792C14.8448 31.031 14.7493 31.222 14.6753 31.3705C14.6078 31.502 14.5703 31.5675 14.5648 31.565Z" fill="#FF9A6C"/>
<path d="M19.024 22.9671C19.0405 22.9786 19.2555 22.7071 19.555 22.2351C19.8545 21.7636 20.229 21.086 20.5755 20.306C20.921 19.5255 21.176 18.796 21.3385 18.2625C21.501 17.7285 21.5765 17.3915 21.556 17.3855C21.533 17.3785 21.4185 17.7035 21.2285 18.226C21.0385 18.748 20.7685 19.466 20.426 20.24C20.0825 21.0135 19.728 21.6926 19.4555 22.1761C19.184 22.6596 19.0035 22.9531 19.024 22.9671Z" fill="#FF9A6C"/>
<path d="M20.4949 23.474C20.5154 23.4835 20.6724 23.193 20.9079 22.715C21.1429 22.2365 21.4569 21.57 21.7699 20.8175C22.0824 20.065 22.3259 19.367 22.4779 18.855C22.6304 18.343 22.6979 18.019 22.6779 18.0135C22.6549 18.007 22.5474 18.3185 22.3679 18.819C22.1884 19.3195 21.9294 20.006 21.6184 20.7555C21.3109 21.4755 21.0329 22.127 20.8024 22.6675C20.5944 23.157 20.4744 23.4645 20.4949 23.474Z" fill="#FF9A6C"/>
<path d="M22.0852 23.7861C22.1022 23.7966 22.2772 23.5606 22.5067 23.1461C22.7372 22.7321 23.0122 22.1351 23.2482 21.4521C23.4837 20.7686 23.6417 20.1331 23.7357 19.6701C23.8297 19.2066 23.8637 18.9161 23.8427 18.9121C23.7912 18.9011 23.5597 20.0451 23.0937 21.3991C22.8597 22.0751 22.6057 22.6706 22.4037 23.0941C22.2027 23.5166 22.0637 23.7731 22.0852 23.7861Z" fill="#FF9A6C"/>
<path d="M1.11035 37.8101C1.11035 37.8101 4.34985 48.5091 5.51835 50.2086C7.65785 53.3201 12.2059 53.9941 13.8924 50.7201C15.6944 47.2216 19.8479 31.1531 19.8479 31.1531L15.6819 29.3026L10.0009 41.1996L8.08935 35.7936L1.11035 37.8101Z" fill="#FFBF9D"/>
<path d="M5.474 26.4885C5.474 26.4885 1.111 28.2825 0.774501 34.199C0.692001 35.6465 1.664 43.4805 1.664 43.4805L9.804 39.921L7.852 33.014L5.474 26.4885Z" fill="#FCBD01"/>
<path d="M9.97556 40.9085C9.90756 40.932 9.26506 39.255 8.54056 37.1635C7.81556 35.071 7.28356 33.3565 7.35156 33.333C7.41956 33.3095 8.06206 34.986 8.78656 37.078C9.51106 39.17 10.0436 40.885 9.97556 40.9085Z" fill="#263238"/>
<path d="M9.27958 15.3191C9.25958 15.3401 8.97108 15.11 8.61158 14.6385C8.25208 14.17 7.84658 13.4411 7.61108 12.5631C7.37858 11.6841 7.36758 10.8496 7.44658 10.2646C7.52408 9.67656 7.65958 9.33406 7.68758 9.34206C7.77258 9.34956 7.39308 10.7901 7.86308 12.4961C8.30358 14.2091 9.34958 15.2701 9.27958 15.3191Z" fill="#455A64"/>
<path d="M28.4544 31.727C28.5249 31.713 28.8619 33.1015 29.2069 34.8275C29.4839 36.2125 29.6819 37.3945 29.7104 37.802L29.7239 37.9945L29.6369 37.833C29.5809 37.729 29.5604 37.6755 29.5724 37.6675C29.5839 37.6595 29.6269 37.6975 29.7039 37.787L29.6304 37.818C29.4999 37.431 29.2284 36.264 28.9514 34.879C28.6064 33.1525 28.3839 31.741 28.4544 31.727Z" fill="#263238"/>
<path d="M8.48029 46.4415C8.16229 44.8165 8.74179 42.1425 10.0003 41.199L8.48029 46.4415Z" fill="#FFBF9D"/>
<path d="M10.0006 41.199C10.0276 41.234 9.77907 41.4335 9.50807 41.8555C9.23007 42.2715 8.95157 42.9165 8.76007 43.6615C8.35507 45.165 8.54607 46.433 8.48057 46.4415C8.45057 46.449 8.34307 46.1395 8.30707 45.6175C8.26807 45.0975 8.31057 44.37 8.50807 43.597C8.70607 42.8255 9.02607 42.1595 9.35857 41.7485C9.68557 41.33 9.98757 41.175 10.0006 41.199Z" fill="#FF9A6C"/>
</svg>
