<svg width="16" height="16" viewBox="0 0 16 16" fill="none" xmlns="http://www.w3.org/2000/svg">
<path d="M6.09566 13.8547V11.8102C6.09565 11.2921 6.51695 10.8711 7.03879 10.8679H8.95491C9.47909 10.8679 9.90402 11.2897 9.90402 11.8102V11.8102V13.8488C9.904 14.2982 10.2692 14.6634 10.7218 14.6666H12.0291C12.6396 14.6682 13.2257 14.4285 13.6579 14.0005C14.0902 13.5724 14.3332 12.9912 14.3332 12.385V6.57723C14.3332 6.08759 14.1145 5.62314 13.7362 5.309L9.29516 1.78284C8.51885 1.16608 7.41009 1.186 6.65676 1.83025L2.31118 5.309C1.915 5.61388 1.67821 6.0797 1.6665 6.57723V12.3791C1.6665 13.6425 2.69809 14.6666 3.97062 14.6666H5.24803C5.46595 14.6682 5.67549 14.5834 5.83015 14.4309C5.98481 14.2785 6.07179 14.0711 6.07178 13.8547H6.09566Z" fill="#5570F1"/>
</svg>
