<svg width="45" height="38" viewBox="0 0 45 38" fill="none" xmlns="http://www.w3.org/2000/svg">
<path d="M12.9428 16.712C12.9428 16.712 9.28579 16.9235 8.99029 17.562C8.99029 17.562 8.94329 20.254 11.5303 22.9655L11.0203 24.0685L11.0178 25.8635C12.2203 23.5315 13.5638 19.959 13.5638 19.959C13.5638 19.959 13.6233 17.45 12.9428 16.712Z" fill="#455A64"/>
<g opacity="0.3">
<path d="M12.8122 16.95C12.8122 16.95 11.5352 20.265 12.3177 22.6525C12.3177 22.6525 14.0717 19.723 12.8122 16.95Z" fill="black"/>
</g>
<path d="M18.5628 21.176C18.5628 21.176 16.8657 17.9295 16.1622 17.923C16.1622 17.923 13.6893 18.9875 12.2813 22.4605L11.0658 22.449C11.0658 22.449 10.4203 19.66 7.17176 18.1265C7.17176 18.1265 5.31726 21.468 5.25376 21.435C5.19026 21.4025 6.80826 23.048 9.42876 23.185C12.0493 23.322 15.8578 23.0775 15.8578 23.0775C15.8578 23.0775 18.1703 22.1 18.5628 21.176Z" fill="#455A64"/>
<g opacity="0.3">
<path d="M10.4355 22.9011C10.4355 22.9011 7.69302 21.3186 5.47852 21.4666C5.47852 21.4666 8.04652 23.6291 10.4355 22.9011Z" fill="black"/>
</g>
<g opacity="0.3">
<path d="M18.2921 21.155C18.2921 21.155 14.7451 21.3545 12.8911 23.0495C12.8911 23.0495 16.2826 23.4435 18.2921 21.155Z" fill="black"/>
</g>
<path d="M23.896 23.07L22.927 37.6335L0.446014 37.423L0.27002 22.849L23.896 23.07Z" fill="#FCBD01"/>
<g opacity="0.3">
<path d="M19.6292 23.03L19.4927 37.601L22.9272 37.6335L23.8962 23.07L19.6292 23.03Z" fill="black"/>
</g>
<path d="M22.2063 23.0545L21.4973 37.62L20.7168 37.6125L20.8533 23.0415L22.2063 23.0545Z" fill="#455A64"/>
<path d="M9.21412 22.9285L9.07715 37.5L10.9507 37.5176L11.0876 22.9461L9.21412 22.9285Z" fill="#455A64"/>
<path d="M23.3896 29.2675H0.347656V30.681H23.3896V29.2675Z" fill="#455A64"/>
<path d="M35.087 9.12802C35.0345 9.14402 35.028 7.77501 34.393 5.80601C34.074 4.83351 33.575 3.7185 32.8005 2.7555C32.0385 1.7915 30.9205 1.074 29.6905 1.068C28.4605 1.062 27.3385 1.76951 26.572 2.72851C25.7935 3.68601 25.291 4.79851 24.969 5.76951C24.3285 7.73501 24.3185 9.104 24.266 9.0875C24.259 9.0865 24.259 9.00351 24.266 8.84551C24.271 8.68701 24.2855 8.45401 24.3195 8.15551C24.388 7.56151 24.518 6.69602 24.8355 5.69502C25.1465 4.69752 25.645 3.54801 26.443 2.54751C27.2275 1.54551 28.402 0.791506 29.6915 0.799006C30.9805 0.803506 32.1505 1.56801 32.9305 2.57501C33.724 3.58051 34.219 4.73252 34.527 5.73152C34.841 6.73402 34.969 7.60001 35.036 8.19451C35.0695 8.49251 35.0835 8.72602 35.088 8.88452C35.094 9.04402 35.094 9.12702 35.087 9.12802Z" fill="#263238"/>
<path d="M36.9551 9.12802C36.9026 9.14402 36.8961 7.77501 36.2611 5.80601C35.9421 4.83351 35.4431 3.7185 34.6686 2.7555C33.9066 1.7915 32.7887 1.074 31.5587 1.068C30.3287 1.062 29.2062 1.76951 28.4402 2.72851C27.6617 3.68601 27.1592 4.79851 26.8372 5.76951C26.1967 7.73501 26.1867 9.104 26.1342 9.0875C26.1272 9.0865 26.1272 9.00351 26.1342 8.84551C26.1392 8.68701 26.1537 8.45401 26.1877 8.15551C26.2562 7.56151 26.3861 6.69602 26.7036 5.69502C27.0146 4.69752 27.5132 3.54801 28.3112 2.54751C29.0957 1.54551 30.2702 0.791506 31.5597 0.799006C32.8487 0.803506 34.0186 1.56801 34.7986 2.57501C35.5921 3.58051 36.0871 4.73252 36.3951 5.73152C36.7091 6.73402 36.8371 7.60001 36.9041 8.19451C36.9376 8.49251 36.9516 8.72602 36.9561 8.88452C36.9621 9.04402 36.9621 9.12702 36.9551 9.12802Z" fill="#263238"/>
<path d="M17.9847 7.68704L39.0862 7.51904L39.5467 37.5055H15.8672L17.9847 7.68704Z" fill="#FCBD01"/>
<path d="M39.0859 7.51904H41.7344L44.0154 37.5055H39.5464L39.0859 7.51904Z" fill="#FCBD01"/>
<path d="M35.4878 17.7045H21.6733V20.7345H35.4878V17.7045Z" fill="white"/>
<g opacity="0.3">
<path d="M39.0859 7.51904H41.7344L44.0154 37.5055H39.5464L39.0859 7.51904Z" fill="black"/>
</g>
<path d="M15.8672 37.5055C15.7957 37.5005 16.0867 32.3195 16.5172 25.934C16.9482 19.5465 17.3557 14.3745 17.4272 14.379C17.4987 14.384 17.2077 19.564 16.7767 25.9515C16.3462 32.3365 15.9392 37.51 15.8672 37.5055Z" fill="#263238"/>
</svg>
