<svg width="42" height="34" viewBox="0 0 42 34" fill="none" xmlns="http://www.w3.org/2000/svg">
<path d="M38.1312 15.726C26.6982 15.726 15.2642 15.726 3.83025 15.726C2.94725 15.726 2.35775 16.215 2.51175 16.818C3.86025 22.079 5.20924 27.34 6.55774 32.6015C6.71224 33.204 7.37724 33.6925 8.04274 33.6925C16.6682 33.6925 25.2938 33.6925 33.9193 33.6925C34.5853 33.6925 35.2498 33.204 35.4043 32.6015C36.7523 27.34 38.1013 22.079 39.4493 16.818C39.6048 16.215 39.0142 15.726 38.1312 15.726ZM8.80725 31.087C8.80725 31.171 8.75874 31.2395 8.69974 31.2395H8.01474C7.95474 31.2395 7.90775 31.171 7.90775 31.087V25.89H8.80725V31.087ZM8.80725 24.9545H7.90775V19.757C7.90775 19.673 7.95524 19.6045 8.01474 19.6045H8.69974C8.75874 19.6045 8.80725 19.673 8.80725 19.757V24.9545ZM10.4907 31.087C10.4907 31.171 10.4433 31.2395 10.3828 31.2395H9.69825C9.63925 31.2395 9.59075 31.171 9.59075 31.087V25.89H10.4907V31.087ZM10.4907 24.9545H9.59075V19.757C9.59075 19.673 9.63875 19.6045 9.69825 19.6045H10.3828C10.4428 19.6045 10.4907 19.673 10.4907 19.757V24.9545ZM12.1733 31.087C12.1733 31.171 12.1247 31.2395 12.0662 31.2395H11.3812C11.3222 31.2395 11.2743 31.171 11.2743 31.087V25.89H12.1737L12.1733 31.087ZM12.1733 24.9545H11.2737V19.757C11.2737 19.673 11.3212 19.6045 11.3807 19.6045H12.0658C12.1248 19.6045 12.1727 19.673 12.1727 19.757V24.9545H12.1733ZM15.5398 31.087C15.5398 31.171 15.4917 31.2395 15.4327 31.2395H14.7472C14.6882 31.2395 14.6408 31.171 14.6408 31.087V25.89H15.5398V31.087ZM15.5398 24.9545H14.6408V19.757C14.6408 19.673 14.6882 19.6045 14.7472 19.6045H15.4327C15.4917 19.6045 15.5398 19.673 15.5398 19.757V24.9545ZM17.2228 31.087C17.2228 31.171 17.1742 31.2395 17.1147 31.2395H16.4302C16.3707 31.2395 16.3227 31.171 16.3227 31.087V25.89H17.2228V31.087ZM17.2228 24.9545H16.3227V19.757C16.3227 19.673 16.3702 19.6045 16.4302 19.6045H17.1147C17.1742 19.6045 17.2228 19.673 17.2228 19.757V24.9545ZM18.9058 31.087C18.9058 31.171 18.8572 31.2395 18.7987 31.2395H18.1128C18.0543 31.2395 18.0062 31.171 18.0062 31.087V25.89H18.9058V31.087ZM18.9058 24.9545H18.0062V19.757C18.0062 19.673 18.0538 19.6045 18.1128 19.6045H18.7987C18.8577 19.6045 18.9058 19.673 18.9058 19.757V24.9545ZM20.5893 31.087C20.5893 31.171 20.5408 31.2395 20.4818 31.2395H19.7963C19.7368 31.2395 19.6892 31.171 19.6892 31.087V25.89H20.5893V31.087ZM20.5893 24.9545H19.6892V19.757C19.6892 19.673 19.7368 19.6045 19.7963 19.6045H20.4818C20.5408 19.6045 20.5893 19.673 20.5893 19.757V24.9545ZM22.2723 31.087C22.2723 31.171 22.2237 31.2395 22.1642 31.2395H21.4793C21.4203 31.2395 21.3718 31.171 21.3718 31.087V25.89H22.2717V31.087H22.2723ZM22.2723 24.9545H21.3722V19.757C21.3722 19.673 21.4203 19.6045 21.4798 19.6045H22.1648C22.2243 19.6045 22.2728 19.673 22.2728 19.757V24.9545H22.2723ZM23.9552 31.087C23.9552 31.171 23.9067 31.2395 23.8472 31.2395H23.1623C23.1028 31.2395 23.0552 31.171 23.0552 31.087V25.89H23.9552V31.087ZM23.9552 24.9545H23.0552V19.757C23.0552 19.673 23.1033 19.6045 23.1623 19.6045H23.8472C23.9067 19.6045 23.9552 19.673 23.9552 19.757V24.9545ZM25.6388 31.087C25.6388 31.171 25.5908 31.2395 25.5313 31.2395H24.8462C24.7872 31.2395 24.7392 31.171 24.7392 31.087V25.89H25.6388V31.087ZM25.6388 24.9545H24.7392V19.757C24.7392 19.673 24.7867 19.6045 24.8462 19.6045H25.5313C25.5908 19.6045 25.6388 19.673 25.6388 19.757V24.9545ZM27.3212 31.087C27.3212 31.171 27.2733 31.2395 27.2143 31.2395H26.5288C26.4693 31.2395 26.4217 31.171 26.4217 31.087V25.89H27.3212V31.087ZM27.3212 24.9545H26.4217V19.757C26.4217 19.673 26.4693 19.6045 26.5288 19.6045H27.2143C27.2733 19.6045 27.3212 19.673 27.3212 19.757V24.9545ZM30.6877 31.087C30.6877 31.171 30.6398 31.2395 30.5808 31.2395H29.8953C29.8363 31.2395 29.7887 31.171 29.7887 31.087V25.89H30.6877V31.087ZM30.6877 24.9545H29.7887V19.757C29.7887 19.673 29.8363 19.6045 29.8953 19.6045H30.5808C30.6398 19.6045 30.6877 19.673 30.6877 19.757V24.9545ZM32.3713 31.087C32.3713 31.171 32.3228 31.2395 32.2638 31.2395H31.5788C31.5198 31.2395 31.4717 31.171 31.4717 31.087V25.89H32.3713V31.087ZM32.3713 24.9545H31.4717V19.757C31.4717 19.673 31.5198 19.6045 31.5788 19.6045H32.2638C32.3228 19.6045 32.3713 19.673 32.3713 19.757V24.9545ZM34.0537 31.087C34.0537 31.171 34.0058 31.2395 33.9468 31.2395H33.2612C33.2022 31.2395 33.1547 31.171 33.1547 31.087V25.89H34.0537V31.087ZM34.0537 24.9545H33.1547V19.757C33.1547 19.673 33.2022 19.6045 33.2612 19.6045H33.9468C34.0058 19.6045 34.0537 19.673 34.0537 19.757V24.9545Z" fill="#FCBD01"/>
<path d="M41.5798 16.646C41.5798 16.9155 41.3788 17.1345 41.1313 17.1345H0.830307C0.582807 17.1345 0.382812 16.9155 0.382812 16.646V14.853C0.382812 14.5835 0.583307 14.3645 0.830307 14.3645H41.1313C41.3788 14.3645 41.5798 14.5835 41.5798 14.853V16.646Z" fill="#FCBD01"/>
<path d="M40.7674 17.129C40.7674 17.193 31.9774 17.245 21.1369 17.245C10.2924 17.245 1.50439 17.193 1.50439 17.129C1.50439 17.065 10.2924 17.013 21.1369 17.013C31.9774 17.013 40.7674 17.065 40.7674 17.129Z" fill="#263238"/>
<g opacity="0.3">
<path d="M3.375 17.129C9.084 18.1185 14.163 18.5695 19.976 18.622C26.168 18.678 33.0295 18.363 39.0695 17.129H3.375Z" fill="black"/>
</g>
<path d="M21.6455 16.546C21.123 16.7675 20.52 16.523 20.299 16.0005L14.193 1.58352C13.9715 1.06102 14.216 0.458022 14.7385 0.237022C15.261 0.0155218 15.864 0.260024 16.085 0.782524L22.191 15.1995C22.4125 15.7215 22.168 16.3245 21.6455 16.546Z" fill="#263238"/>
<path d="M21.2225 16.312C21.6221 16.312 21.946 15.9881 21.946 15.5885C21.946 15.1889 21.6221 14.865 21.2225 14.865C20.823 14.865 20.499 15.1889 20.499 15.5885C20.499 15.9881 20.823 16.312 21.2225 16.312Z" fill="#455A64"/>
</svg>
