<svg width="23" height="23" viewBox="0 0 23 23" fill="none" xmlns="http://www.w3.org/2000/svg">
<path d="M22.4027 19.685L18.9342 19.482C17.4722 20.843 15.6282 21.8295 13.5262 22.25C7.48067 23.46 1.59966 19.54 0.389663 13.4945C-0.820337 7.44899 3.09966 1.56799 9.14516 0.357986C15.1907 -0.852014 21.0722 3.06798 22.2817 9.11348C22.7867 11.6375 22.3952 14.132 21.3302 16.271L21.3342 16.2665L22.4027 19.685Z" fill="white"/>
<path d="M22.4028 19.685C22.4028 19.685 22.3833 19.6135 22.3398 19.468C22.2943 19.318 22.2288 19.101 22.1428 18.8165C21.9643 18.2325 21.7022 17.3745 21.3612 16.2575L21.3468 16.2095L21.3128 16.247L21.3088 16.2515L21.3558 16.2835C21.9973 15.0015 22.6083 13.162 22.5368 10.9215C22.5203 10.3645 22.4578 9.78599 22.3453 9.19599C22.2043 8.61299 22.0797 8.001 21.8372 7.4055C21.3957 6.2035 20.7158 4.997 19.7718 3.919C18.8308 2.841 17.6278 1.8935 16.2213 1.212C14.8178 0.5295 13.2113 0.116495 11.5368 0.081995C9.86276 0.036495 8.13175 0.412992 6.53625 1.16349C4.94325 1.91649 3.47576 3.06049 2.38376 4.54249C2.24776 4.72949 2.10725 4.91249 1.97525 5.10099C1.85675 5.29849 1.73876 5.49549 1.62076 5.69149L1.44426 5.98599L1.29576 6.29449C1.19776 6.50049 1.10026 6.7055 1.00226 6.9105C0.912256 7.1185 0.844249 7.335 0.764249 7.546C0.691749 7.7595 0.598759 7.96599 0.552259 8.18649C0.444759 8.62199 0.311254 9.04999 0.262754 9.49299C-0.0232461 11.246 0.118254 13.018 0.609754 14.6265C1.11325 16.234 1.96475 17.6685 3.02075 18.828C4.07625 19.9905 5.33125 20.8795 6.63576 21.48C7.94126 22.083 9.29426 22.3975 10.5758 22.4825C11.2178 22.541 11.8413 22.495 12.4413 22.459C13.0358 22.3665 13.6143 22.3025 14.1528 22.15C16.3228 21.5825 17.9143 20.479 18.9528 19.503L18.9318 19.5105C20.0618 19.569 20.9313 19.614 21.5233 19.645C21.8113 19.659 22.0308 19.67 22.1828 19.6775C22.3313 19.684 22.4028 19.685 22.4028 19.685C22.4028 19.685 22.3233 19.6775 22.1728 19.667C22.0188 19.6565 21.7968 19.6415 21.5058 19.6215C20.9188 19.583 20.0567 19.527 18.9362 19.4535L18.9243 19.453L18.9153 19.4615C17.8743 20.4245 16.2873 21.5105 14.1318 22.0645C13.5973 22.2135 13.0228 22.274 12.4333 22.364C11.8378 22.397 11.2203 22.441 10.5838 22.381C9.31425 22.293 7.97525 21.9775 6.68425 21.377C5.39425 20.7795 4.15426 19.897 3.11226 18.7455C2.06976 17.597 1.23025 16.1775 0.733747 14.588C0.249247 12.997 0.111758 11.2455 0.394758 9.514C0.442758 9.0765 0.57576 8.65399 0.68176 8.22349C0.72726 8.00549 0.819748 7.80149 0.891248 7.59049C0.970248 7.38199 1.03775 7.16799 1.12675 6.96249C1.22325 6.75999 1.31976 6.5575 1.41676 6.354L1.56375 6.04949L1.73825 5.75849C1.85475 5.56449 1.97125 5.37 2.08825 5.175C2.21875 4.989 2.35726 4.808 2.49176 4.6235C3.57076 3.159 5.01975 2.02899 6.59375 1.28399C8.16925 0.541491 9.88076 0.167993 11.5353 0.210993C13.1903 0.243493 14.7793 0.6495 16.1688 1.322C17.5608 1.9935 18.7533 2.92899 19.6873 3.99349C20.6243 5.05849 21.3012 6.25099 21.7422 7.44099C21.9847 8.03049 22.1093 8.63699 22.2518 9.21449C22.3658 9.79899 22.4303 10.3725 22.4483 10.925C22.5288 13.147 21.9327 14.9775 21.3047 16.258L21.2128 16.446L21.3518 16.2905L21.3558 16.286L21.3072 16.2755C21.6602 17.3795 21.9318 18.228 22.1163 18.805C22.2088 19.091 22.2793 19.309 22.3278 19.46C22.3753 19.6075 22.4028 19.685 22.4028 19.685Z" fill="#263238"/>
<path d="M15.0616 12.711H8.9501C8.8331 12.711 8.7381 12.6165 8.7381 12.499C8.7381 12.3815 8.8331 12.287 8.9501 12.287H14.8841L15.5386 8.588H8.3746C8.2576 8.588 8.1626 8.49301 8.1626 8.37601C8.1626 8.25901 8.2576 8.164 8.3746 8.164H15.7916C15.8541 8.164 15.9136 8.1915 15.9536 8.2395C15.9941 8.2875 16.0111 8.35101 16.0001 8.41251L15.2701 12.535C15.2521 12.6375 15.1641 12.711 15.0616 12.711Z" fill="#FCBD01"/>
<path d="M14.859 14.153H14.858L9.03749 14.1325C8.93099 14.132 8.8415 14.053 8.828 13.9475L7.9995 7.49052H6.3165C6.1995 7.49052 6.10449 7.39603 6.10449 7.27853C6.10449 7.16153 6.1995 7.06653 6.3165 7.06653H8.18599C8.29299 7.06653 8.3825 7.14553 8.3965 7.25153L9.22499 13.7095L14.8595 13.729C14.9765 13.7295 15.071 13.8245 15.0705 13.942C15.0705 14.0585 14.9755 14.153 14.859 14.153Z" fill="#FCBD01"/>
<path d="M9.98825 16.224C9.47225 16.224 9.05176 15.804 9.05176 15.2875C9.05176 14.771 9.47175 14.351 9.98825 14.351C10.5048 14.351 10.9248 14.771 10.9248 15.2875C10.9248 15.804 10.5048 16.224 9.98825 16.224ZM9.98825 14.775C9.70575 14.775 9.47575 15.005 9.47575 15.288C9.47575 15.571 9.70575 15.8005 9.98825 15.8005C10.2708 15.8005 10.5013 15.5705 10.5013 15.288C10.5013 15.0055 10.2708 14.775 9.98825 14.775Z" fill="#FCBD01"/>
<path d="M14.0053 16.224C13.4893 16.224 13.0688 15.804 13.0688 15.2875C13.0688 14.771 13.4888 14.351 14.0053 14.351C14.5218 14.351 14.9418 14.771 14.9418 15.2875C14.9418 15.804 14.5218 16.224 14.0053 16.224ZM14.0053 14.775C13.7223 14.775 13.4928 15.005 13.4928 15.288C13.4928 15.571 13.7223 15.8005 14.0053 15.8005C14.2878 15.8005 14.5183 15.5705 14.5183 15.288C14.5183 15.0055 14.2878 14.775 14.0053 14.775Z" fill="#FCBD01"/>
<path d="M10.8369 12.711C10.7254 12.711 10.6324 12.6245 10.6254 12.5125L10.3769 8.52249C10.3694 8.40599 10.4584 8.30499 10.5754 8.29799C10.6994 8.28399 10.7929 8.37999 10.8004 8.49649L11.0489 12.4865C11.0564 12.603 10.9674 12.704 10.8509 12.711C10.8454 12.711 10.8409 12.711 10.8369 12.711Z" fill="#FCBD01"/>
<path d="M13.0712 12.711C13.0672 12.711 13.0632 12.711 13.0592 12.7105C12.9427 12.704 12.8532 12.604 12.8597 12.487L13.0822 8.49701C13.0887 8.38051 13.1832 8.28302 13.3057 8.29752C13.4227 8.30402 13.5117 8.40401 13.5052 8.52101L13.2827 12.5105C13.2767 12.6235 13.1832 12.711 13.0712 12.711Z" fill="#FCBD01"/>
<path d="M8.5997 10.716C8.4832 10.716 8.38921 10.6225 8.38771 10.506C8.38621 10.389 8.4802 10.2935 8.5977 10.292L15.4242 10.226C15.4252 10.226 15.4262 10.226 15.4262 10.226C15.5427 10.226 15.6367 10.3195 15.6382 10.436C15.6397 10.553 15.5457 10.649 15.4282 10.65L8.6017 10.716C8.6017 10.716 8.6007 10.716 8.5997 10.716Z" fill="#FCBD01"/>
</svg>
